STARTFONT 2.1
COMMENT
COMMENT Converted from OpenType font "Patriot-Normal.otf" by "otf2bdf 3.0".
COMMENT
FONT -FreeType-Patriot Normal-Medium-R-Normal--19-140-100-100-P-92-ISO10646-1
SIZE 14 100 100
FONTBOUNDINGBOX 30 25 -7 -5
STARTPROPERTIES 19
FOUNDRY "FreeType"
FAMILY_NAME "Patriot Normal"
WEIGHT_NAME "Medium"
SLANT "R"
SETWIDTH_NAME "Normal"
ADD_STYLE_NAME ""
PIXEL_SIZE 19
POINT_SIZE 140
RESOLUTION_X 100
RESOLUTION_Y 100
SPACING "P"
AVERAGE_WIDTH 92
CHARSET_REGISTRY "ISO10646"
CHARSET_ENCODING "1"
FONT_ASCENT 19
FONT_DESCENT 3
COPYRIGHT "Copyright © 2020 by Behalf Studio. All rights reserved."
_OTF_FONTFILE "Patriot-Normal.otf"
_OTF_PSNAME "Patriot-Normal"
ENDPROPERTIES
CHARS 426
STARTCHAR 0020
ENCODING 32
SWIDTH 308 0
DWIDTH 6 0
BBX 0 0 0 0
BITMAP
ENDCHAR
STARTCHAR 0021
ENCODING 33
SWIDTH 205 0
DWIDTH 4 0
BBX 3 14 1 0
BITMAP
40
40
40
40
40
40
40
40
40
00
00
00
E0
E0
ENDCHAR
STARTCHAR 0022
ENCODING 34
SWIDTH 257 0
DWIDTH 5 0
BBX 4 5 1 9
BITMAP
90
90
90
90
90
ENDCHAR
STARTCHAR 0023
ENCODING 35
SWIDTH 617 0
DWIDTH 12 0
BBX 10 14 1 0
BITMAP
1080
1080
1180
1100
1100
7FC0
3100
2100
2100
FFC0
2200
2200
2200
6200
ENDCHAR
STARTCHAR 0024
ENCODING 36
SWIDTH 514 0
DWIDTH 10 0
BBX 8 17 1 -2
BITMAP
08
3C
7E
4B
49
68
38
18
0E
0B
09
89
C9
6B
3E
08
08
ENDCHAR
STARTCHAR 0025
ENCODING 37
SWIDTH 822 0
DWIDTH 16 0
BBX 14 14 1 0
BITMAP
3818
4C10
8420
8640
C4C0
7C80
1100
0300
0278
04C4
0C84
0884
10C4
2078
ENDCHAR
STARTCHAR 0026
ENCODING 38
SWIDTH 617 0
DWIDTH 12 0
BBX 11 14 1 0
BITMAP
1C00
7E00
4300
4000
4000
6000
3FE0
70C0
C080
C080
C080
C180
6300
3E00
ENDCHAR
STARTCHAR 0027
ENCODING 39
SWIDTH 154 0
DWIDTH 3 0
BBX 1 5 1 9
BITMAP
80
80
80
80
80
ENDCHAR
STARTCHAR 0028
ENCODING 40
SWIDTH 308 0
DWIDTH 6 0
BBX 4 17 1 -3
BITMAP
30
20
60
40
40
C0
80
80
80
80
80
C0
40
40
60
20
30
ENDCHAR
STARTCHAR 0029
ENCODING 41
SWIDTH 308 0
DWIDTH 6 0
BBX 4 17 1 -3
BITMAP
C0
40
60
20
20
10
10
10
10
10
10
10
30
20
60
40
C0
ENDCHAR
STARTCHAR 002A
ENCODING 42
SWIDTH 411 0
DWIDTH 8 0
BBX 7 7 1 7
BITMAP
10
10
D6
7C
28
6C
40
ENDCHAR
STARTCHAR 002B
ENCODING 43
SWIDTH 514 0
DWIDTH 10 0
BBX 9 9 1 2
BITMAP
0800
0800
0800
0800
FF80
0800
0800
0800
0800
ENDCHAR
STARTCHAR 002C
ENCODING 44
SWIDTH 257 0
DWIDTH 5 0
BBX 3 3 1 -2
BITMAP
60
40
80
ENDCHAR
STARTCHAR 002D
ENCODING 45
SWIDTH 411 0
DWIDTH 8 0
BBX 7 1 1 4
BITMAP
FE
ENDCHAR
STARTCHAR 002E
ENCODING 46
SWIDTH 205 0
DWIDTH 4 0
BBX 3 2 1 0
BITMAP
E0
E0
ENDCHAR
STARTCHAR 002F
ENCODING 47
SWIDTH 360 0
DWIDTH 7 0
BBX 5 14 1 0
BITMAP
08
08
18
10
10
10
20
20
20
60
40
40
40
80
ENDCHAR
STARTCHAR 0030
ENCODING 48
SWIDTH 668 0
DWIDTH 13 0
BBX 12 14 1 0
BITMAP
0F00
39C0
6060
C020
8030
8030
8010
8010
8030
8030
C020
4060
70C0
1F80
ENDCHAR
STARTCHAR 0031
ENCODING 49
SWIDTH 257 0
DWIDTH 5 0
BBX 3 14 1 0
BITMAP
20
20
E0
20
20
20
20
20
20
20
20
20
20
20
ENDCHAR
STARTCHAR 0032
ENCODING 50
SWIDTH 514 0
DWIDTH 10 0
BBX 9 14 1 0
BITMAP
3C00
6600
C300
8100
8100
0100
0300
0200
0400
0800
1000
2000
4000
FF80
ENDCHAR
STARTCHAR 0033
ENCODING 51
SWIDTH 514 0
DWIDTH 10 0
BBX 9 14 1 0
BITMAP
FF00
FE00
0400
1800
3000
7E00
4300
0100
0180
0180
0100
0300
C600
7C00
ENDCHAR
STARTCHAR 0034
ENCODING 52
SWIDTH 514 0
DWIDTH 10 0
BBX 10 14 0 0
BITMAP
0300
0F00
1900
2100
6100
4100
C100
C100
FFC0
FFC0
0100
0100
0100
0100
ENDCHAR
STARTCHAR 0035
ENCODING 53
SWIDTH 514 0
DWIDTH 10 0
BBX 9 14 1 0
BITMAP
FF00
FF00
C000
C000
8000
FE00
C300
0180
0180
0180
0180
0100
C300
7E00
ENDCHAR
STARTCHAR 0036
ENCODING 54
SWIDTH 565 0
DWIDTH 11 0
BBX 10 14 1 0
BITMAP
0400
0C00
1800
1000
3E00
7380
4080
C0C0
8040
8040
80C0
C0C0
6180
3F00
ENDCHAR
STARTCHAR 0037
ENCODING 55
SWIDTH 411 0
DWIDTH 8 0
BBX 8 14 1 0
BITMAP
FF
FE
06
04
04
0C
FE
18
10
10
30
20
60
40
ENDCHAR
STARTCHAR 0038
ENCODING 56
SWIDTH 514 0
DWIDTH 10 0
BBX 9 14 1 0
BITMAP
1C00
3600
6300
6300
3600
3E00
4300
8180
8080
8080
8080
C180
6300
3E00
ENDCHAR
STARTCHAR 0039
ENCODING 57
SWIDTH 565 0
DWIDTH 11 0
BBX 10 14 1 0
BITMAP
1E00
7300
C180
80C0
80C0
80C0
80C0
C080
6180
3F00
0200
0600
0C00
0800
ENDCHAR
STARTCHAR 003A
ENCODING 58
SWIDTH 205 0
DWIDTH 4 0
BBX 3 9 1 0
BITMAP
E0
E0
00
00
00
00
00
E0
E0
ENDCHAR
STARTCHAR 003B
ENCODING 59
SWIDTH 257 0
DWIDTH 5 0
BBX 3 11 1 -2
BITMAP
60
60
00
00
00
00
00
00
60
40
80
ENDCHAR
STARTCHAR 003C
ENCODING 60
SWIDTH 514 0
DWIDTH 10 0
BBX 9 8 1 2
BITMAP
0180
0700
3800
C000
E000
3C00
0700
0080
ENDCHAR
STARTCHAR 003D
ENCODING 61
SWIDTH 514 0
DWIDTH 10 0
BBX 9 5 1 4
BITMAP
FF80
0000
0000
0000
FF80
ENDCHAR
STARTCHAR 003E
ENCODING 62
SWIDTH 514 0
DWIDTH 10 0
BBX 9 8 1 2
BITMAP
8000
7000
1E00
0380
0380
1C00
F000
8000
ENDCHAR
STARTCHAR 003F
ENCODING 63
SWIDTH 411 0
DWIDTH 8 0
BBX 6 14 1 0
BITMAP
38
7C
84
04
0C
18
10
30
20
20
00
00
70
30
ENDCHAR
STARTCHAR 0040
ENCODING 64
SWIDTH 771 0
DWIDTH 15 0
BBX 13 14 1 0
BITMAP
0780
1860
2010
4008
47C8
8CC8
8888
8888
8898
CFF0
4000
6010
3030
0FC0
ENDCHAR
STARTCHAR 0041
ENCODING 65
SWIDTH 514 0
DWIDTH 10 0
BBX 9 14 1 0
BITMAP
3C00
6600
C300
C300
8100
8100
8100
8100
8100
8100
8100
8100
8100
FF80
ENDCHAR
STARTCHAR 0042
ENCODING 66
SWIDTH 565 0
DWIDTH 11 0
BBX 10 14 1 0
BITMAP
7C00
7F80
4080
40C0
40C0
4080
FF80
FF80
40C0
40C0
40C0
40C0
4180
7F00
ENDCHAR
STARTCHAR 0043
ENCODING 67
SWIDTH 668 0
DWIDTH 13 0
BBX 12 14 1 0
BITMAP
0F80
3CE0
6030
4000
C000
8000
8000
8000
8000
C000
C000
6030
3860
1FC0
ENDCHAR
STARTCHAR 0044
ENCODING 68
SWIDTH 617 0
DWIDTH 12 0
BBX 11 14 1 0
BITMAP
F800
FF00
8180
80C0
8040
8060
8060
8060
8060
8040
80C0
8180
8700
FC00
ENDCHAR
STARTCHAR 0045
ENCODING 69
SWIDTH 462 0
DWIDTH 9 0
BBX 9 14 0 0
BITMAP
3E00
3E00
2000
2000
2000
2000
FF00
FF00
2000
2000
2000
2000
2000
3F80
ENDCHAR
STARTCHAR 0046
ENCODING 70
SWIDTH 411 0
DWIDTH 8 0
BBX 9 14 0 0
BITMAP
3F80
3F80
3000
3000
3000
3000
3000
FF00
3000
3000
3000
3000
3000
3000
ENDCHAR
STARTCHAR 0047
ENCODING 71
SWIDTH 822 0
DWIDTH 16 0
BBX 15 14 1 0
BITMAP
0F80
3CE0
6030
4000
C000
8000
83FE
83FE
800C
C00C
C018
6018
3870
1FC0
ENDCHAR
STARTCHAR 0048
ENCODING 72
SWIDTH 514 0
DWIDTH 10 0
BBX 10 14 0 0
BITMAP
20C0
20C0
20C0
20C0
20C0
20C0
FFC0
20C0
20C0
20C0
20C0
20C0
20C0
20C0
ENDCHAR
STARTCHAR 0049
ENCODING 73
SWIDTH 154 0
DWIDTH 3 0
BBX 5 15 -1 0
BITMAP
20
F8
30
50
00
00
00
20
20
20
20
20
20
20
20
ENDCHAR
STARTCHAR 004A
ENCODING 74
SWIDTH 411 0
DWIDTH 8 0
BBX 8 14 0 0
BITMAP
07
07
03
03
03
03
03
03
03
03
03
C3
46
7C
ENDCHAR
STARTCHAR 004B
ENCODING 75
SWIDTH 514 0
DWIDTH 10 0
BBX 9 14 0 0
BITMAP
2100
2100
2100
2100
2100
2300
FE00
FF00
2180
2080
2080
2080
2080
2080
ENDCHAR
STARTCHAR 004C
ENCODING 76
SWIDTH 411 0
DWIDTH 8 0
BBX 7 14 1 0
BITMAP
80
80
80
80
80
80
80
80
80
80
80
80
80
FE
ENDCHAR
STARTCHAR 004D
ENCODING 77
SWIDTH 822 0
DWIDTH 16 0
BBX 15 14 1 0
BITMAP
8006
C186
E1C6
F966
CD3E
C70E
C306
C106
C106
C106
C106
C106
C106
C106
ENDCHAR
STARTCHAR 004E
ENCODING 78
SWIDTH 462 0
DWIDTH 9 0
BBX 8 14 1 0
BITMAP
83
C3
E3
BB
8F
87
83
83
83
83
83
83
83
83
ENDCHAR
STARTCHAR 004F
ENCODING 79
SWIDTH 771 0
DWIDTH 15 0
BBX 14 14 1 0
BITMAP
0F80
3CE0
6030
4018
C00C
800C
8004
8004
8004
C00C
C008
6018
3870
1FC0
ENDCHAR
STARTCHAR 0050
ENCODING 80
SWIDTH 514 0
DWIDTH 10 0
BBX 10 14 0 0
BITMAP
7E00
7F80
60C0
6040
6040
6040
60C0
FF80
FE00
6000
6000
6000
6000
6000
ENDCHAR
STARTCHAR 0051
ENCODING 81
SWIDTH 771 0
DWIDTH 15 0
BBX 14 14 1 0
BITMAP
0F80
3CE0
6030
4018
C00C
800C
8004
8004
8004
C04C
C0C8
6078
3870
1FD8
ENDCHAR
STARTCHAR 0052
ENCODING 82
SWIDTH 565 0
DWIDTH 11 0
BBX 10 14 0 0
BITMAP
3E00
3F80
20C0
2040
2040
2040
20C0
FF80
FF80
2080
20C0
20C0
20C0
20C0
ENDCHAR
STARTCHAR 0053
ENCODING 83
SWIDTH 462 0
DWIDTH 9 0
BBX 8 14 1 0
BITMAP
3C
6E
C2
C2
C0
60
38
0C
06
03
83
83
C6
7C
ENDCHAR
STARTCHAR 0054
ENCODING 84
SWIDTH 462 0
DWIDTH 9 0
BBX 9 14 0 0
BITMAP
FF80
FF80
0C00
0C00
0C00
0C00
0C00
0C00
0C00
0C00
0C00
0C00
0C00
0C00
ENDCHAR
STARTCHAR 0055
ENCODING 85
SWIDTH 462 0
DWIDTH 9 0
BBX 8 14 1 0
BITMAP
83
83
83
83
83
83
83
83
83
83
83
C3
46
7C
ENDCHAR
STARTCHAR 0056
ENCODING 86
SWIDTH 411 0
DWIDTH 8 0
BBX 8 14 0 0
BITMAP
C3
C3
C3
C3
C3
C3
C3
C3
C3
C3
42
66
24
18
ENDCHAR
STARTCHAR 0057
ENCODING 87
SWIDTH 771 0
DWIDTH 15 0
BBX 14 14 0 0
BITMAP
C304
C304
C304
C304
C304
C304
C304
C304
C304
C30C
438C
6788
24D8
1870
ENDCHAR
STARTCHAR 0058
ENCODING 88
SWIDTH 462 0
DWIDTH 9 0
BBX 8 14 1 0
BITMAP
83
83
83
83
C3
66
7C
46
C3
83
83
83
83
83
ENDCHAR
STARTCHAR 0059
ENCODING 89
SWIDTH 462 0
DWIDTH 9 0
BBX 8 14 1 0
BITMAP
83
83
83
83
83
83
83
83
C2
7E
38
10
10
10
ENDCHAR
STARTCHAR 005A
ENCODING 90
SWIDTH 462 0
DWIDTH 9 0
BBX 9 14 0 0
BITMAP
7F80
7F80
0100
0300
0200
0600
0C00
0800
1800
1000
3000
6000
4000
FF80
ENDCHAR
STARTCHAR 005B
ENCODING 91
SWIDTH 205 0
DWIDTH 4 0
BBX 2 19 1 -3
BITMAP
C0
80
80
80
80
80
80
80
80
80
80
80
80
80
80
80
80
80
C0
ENDCHAR
STARTCHAR 005C
ENCODING 92
SWIDTH 360 0
DWIDTH 7 0
BBX 5 14 1 0
BITMAP
80
C0
40
40
60
20
20
20
30
10
10
18
08
08
ENDCHAR
STARTCHAR 005D
ENCODING 93
SWIDTH 205 0
DWIDTH 4 0
BBX 2 19 1 -3
BITMAP
C0
40
40
40
40
40
40
40
40
40
40
40
40
40
40
40
40
40
C0
ENDCHAR
STARTCHAR 005E
ENCODING 94
SWIDTH 411 0
DWIDTH 8 0
BBX 7 5 1 7
BITMAP
10
28
68
44
C6
ENDCHAR
STARTCHAR 005F
ENCODING 95
SWIDTH 514 0
DWIDTH 10 0
BBX 8 1 1 -2
BITMAP
FF
ENDCHAR
STARTCHAR 0060
ENCODING 96
SWIDTH 102 0
DWIDTH 2 0
BBX 2 2 0 15
BITMAP
C0
40
ENDCHAR
STARTCHAR 0061
ENCODING 97
SWIDTH 514 0
DWIDTH 10 0
BBX 9 14 1 0
BITMAP
3C00
6600
C300
C300
8100
8100
8100
8100
8100
8100
8100
8100
8100
FF80
ENDCHAR
STARTCHAR 0062
ENCODING 98
SWIDTH 565 0
DWIDTH 11 0
BBX 10 14 1 0
BITMAP
7C00
7F80
4080
40C0
40C0
4080
FF80
FF80
40C0
40C0
40C0
40C0
4180
7F00
ENDCHAR
STARTCHAR 0063
ENCODING 99
SWIDTH 668 0
DWIDTH 13 0
BBX 12 14 1 0
BITMAP
0F80
3CE0
6030
4000
C000
8000
8000
8000
8000
C000
C000
6030
3860
1FC0
ENDCHAR
STARTCHAR 0064
ENCODING 100
SWIDTH 617 0
DWIDTH 12 0
BBX 11 14 1 0
BITMAP
F800
FF00
8180
80C0
8040
8060
8060
8060
8060
8040
80C0
8180
8700
FC00
ENDCHAR
STARTCHAR 0065
ENCODING 101
SWIDTH 462 0
DWIDTH 9 0
BBX 9 14 0 0
BITMAP
3E00
3E00
2000
2000
2000
2000
FF00
FF00
2000
2000
2000
2000
2000
3F80
ENDCHAR
STARTCHAR 0066
ENCODING 102
SWIDTH 411 0
DWIDTH 8 0
BBX 9 14 0 0
BITMAP
3F80
3F80
3000
3000
3000
3000
3000
FF00
3000
3000
3000
3000
3000
3000
ENDCHAR
STARTCHAR 0067
ENCODING 103
SWIDTH 822 0
DWIDTH 16 0
BBX 15 14 1 0
BITMAP
0F80
3CE0
6030
4000
C000
8000
83FE
83FE
800C
C00C
C018
6018
3870
1FC0
ENDCHAR
STARTCHAR 0068
ENCODING 104
SWIDTH 514 0
DWIDTH 10 0
BBX 10 14 0 0
BITMAP
20C0
20C0
20C0
20C0
20C0
20C0
FFC0
20C0
20C0
20C0
20C0
20C0
20C0
20C0
ENDCHAR
STARTCHAR 0069
ENCODING 105
SWIDTH 154 0
DWIDTH 3 0
BBX 5 15 -1 0
BITMAP
20
F8
30
50
00
00
00
20
20
20
20
20
20
20
20
ENDCHAR
STARTCHAR 006A
ENCODING 106
SWIDTH 411 0
DWIDTH 8 0
BBX 8 14 0 0
BITMAP
07
07
03
03
03
03
03
03
03
03
03
C3
46
7C
ENDCHAR
STARTCHAR 006B
ENCODING 107
SWIDTH 514 0
DWIDTH 10 0
BBX 9 14 0 0
BITMAP
2100
2100
2100
2100
2100
2300
FE00
FF00
2180
2080
2080
2080
2080
2080
ENDCHAR
STARTCHAR 006C
ENCODING 108
SWIDTH 411 0
DWIDTH 8 0
BBX 7 14 1 0
BITMAP
80
80
80
80
80
80
80
80
80
80
80
80
80
FE
ENDCHAR
STARTCHAR 006D
ENCODING 109
SWIDTH 822 0
DWIDTH 16 0
BBX 15 14 1 0
BITMAP
8006
C186
E1C6
F966
CD3E
C70E
C306
C106
C106
C106
C106
C106
C106
C106
ENDCHAR
STARTCHAR 006E
ENCODING 110
SWIDTH 462 0
DWIDTH 9 0
BBX 8 14 1 0
BITMAP
83
C3
E3
BB
8F
87
83
83
83
83
83
83
83
83
ENDCHAR
STARTCHAR 006F
ENCODING 111
SWIDTH 771 0
DWIDTH 15 0
BBX 14 14 1 0
BITMAP
0F80
3CE0
6030
4018
C00C
800C
8004
8004
8004
C00C
C008
6018
3870
1FC0
ENDCHAR
STARTCHAR 0070
ENCODING 112
SWIDTH 514 0
DWIDTH 10 0
BBX 10 14 0 0
BITMAP
7E00
7F80
60C0
6040
6040
6040
60C0
FF80
FE00
6000
6000
6000
6000
6000
ENDCHAR
STARTCHAR 0071
ENCODING 113
SWIDTH 771 0
DWIDTH 15 0
BBX 14 14 1 0
BITMAP
0F80
3CE0
6030
4018
C00C
800C
8004
8004
8004
C04C
C0C8
6078
3870
1FD8
ENDCHAR
STARTCHAR 0072
ENCODING 114
SWIDTH 565 0
DWIDTH 11 0
BBX 10 14 0 0
BITMAP
3E00
3F80
20C0
2040
2040
2040
20C0
FF80
FF80
2080
20C0
20C0
20C0
20C0
ENDCHAR
STARTCHAR 0073
ENCODING 115
SWIDTH 462 0
DWIDTH 9 0
BBX 8 14 1 0
BITMAP
3C
6E
C2
C2
C0
60
38
0C
06
03
83
83
C6
7C
ENDCHAR
STARTCHAR 0074
ENCODING 116
SWIDTH 462 0
DWIDTH 9 0
BBX 9 14 0 0
BITMAP
FF80
FF80
0C00
0C00
0C00
0C00
0C00
0C00
0C00
0C00
0C00
0C00
0C00
0C00
ENDCHAR
STARTCHAR 0075
ENCODING 117
SWIDTH 462 0
DWIDTH 9 0
BBX 8 14 1 0
BITMAP
83
83
83
83
83
83
83
83
83
83
83
C3
46
7C
ENDCHAR
STARTCHAR 0076
ENCODING 118
SWIDTH 411 0
DWIDTH 8 0
BBX 8 14 0 0
BITMAP
C3
C3
C3
C3
C3
C3
C3
C3
C3
C3
42
66
24
18
ENDCHAR
STARTCHAR 0077
ENCODING 119
SWIDTH 771 0
DWIDTH 15 0
BBX 14 14 0 0
BITMAP
C304
C304
C304
C304
C304
C304
C304
C304
C304
C30C
438C
6788
24D8
1870
ENDCHAR
STARTCHAR 0078
ENCODING 120
SWIDTH 462 0
DWIDTH 9 0
BBX 8 14 1 0
BITMAP
83
83
83
83
C3
66
7C
46
C3
83
83
83
83
83
ENDCHAR
STARTCHAR 0079
ENCODING 121
SWIDTH 462 0
DWIDTH 9 0
BBX 8 14 1 0
BITMAP
83
83
83
83
83
83
83
83
C2
7E
38
10
10
10
ENDCHAR
STARTCHAR 007A
ENCODING 122
SWIDTH 462 0
DWIDTH 9 0
BBX 9 14 0 0
BITMAP
7F80
7F80
0100
0300
0200
0600
0C00
0800
1800
1000
3000
6000
4000
FF80
ENDCHAR
STARTCHAR 007B
ENCODING 123
SWIDTH 308 0
DWIDTH 6 0
BBX 5 19 1 -3
BITMAP
18
20
20
20
20
20
20
60
40
C0
40
20
20
20
20
20
20
20
18
ENDCHAR
STARTCHAR 007C
ENCODING 124
SWIDTH 102 0
DWIDTH 2 0
BBX 1 16 1 -2
BITMAP
80
80
80
80
80
80
80
80
80
80
80
80
80
80
80
80
ENDCHAR
STARTCHAR 007D
ENCODING 125
SWIDTH 308 0
DWIDTH 6 0
BBX 5 19 1 -3
BITMAP
C0
60
20
20
20
20
20
20
30
18
30
20
20
20
20
20
20
60
C0
ENDCHAR
STARTCHAR 007E
ENCODING 126
SWIDTH 514 0
DWIDTH 10 0
BBX 8 2 1 5
BITMAP
FD
0F
ENDCHAR
STARTCHAR 00A1
ENCODING 161
SWIDTH 205 0
DWIDTH 4 0
BBX 3 14 1 -2
BITMAP
40
E0
C0
00
00
40
40
40
40
40
40
40
40
40
ENDCHAR
STARTCHAR 00A2
ENCODING 162
SWIDTH 514 0
DWIDTH 10 0
BBX 8 12 1 1
BITMAP
08
08
3E
49
C8
88
88
88
48
7B
1C
08
ENDCHAR
STARTCHAR 00A3
ENCODING 163
SWIDTH 514 0
DWIDTH 10 0
BBX 8 14 1 0
BITMAP
0F
3F
20
60
60
60
20
FE
30
10
10
30
60
FF
ENDCHAR
STARTCHAR 00A4
ENCODING 164
SWIDTH 514 0
DWIDTH 10 0
BBX 9 8 1 3
BITMAP
FD00
6300
4100
4100
4100
4100
7F00
8980
ENDCHAR
STARTCHAR 00A5
ENCODING 165
SWIDTH 617 0
DWIDTH 12 0
BBX 10 14 1 0
BITMAP
C0C0
40C0
6180
2100
3300
1200
1E00
7F80
7F80
0C00
7F80
0C00
0C00
0C00
ENDCHAR
STARTCHAR 00A6
ENCODING 166
SWIDTH 102 0
DWIDTH 2 0
BBX 1 16 1 -2
BITMAP
80
80
80
80
80
80
00
00
00
00
80
80
80
80
80
80
ENDCHAR
STARTCHAR 00A7
ENCODING 167
SWIDTH 462 0
DWIDTH 9 0
BBX 7 16 1 -2
BITMAP
38
7C
46
40
60
18
7C
C6
82
C6
38
18
04
C4
44
7C
ENDCHAR
STARTCHAR 00A8
ENCODING 168
SWIDTH 308 0
DWIDTH 6 0
BBX 7 2 0 15
BITMAP
EE
EE
ENDCHAR
STARTCHAR 00A9
ENCODING 169
SWIDTH 822 0
DWIDTH 16 0
BBX 14 14 1 0
BITMAP
07C0
1830
2018
4308
46C4
8804
8804
9804
8804
8C44
4784
6008
3010
0FE0
ENDCHAR
STARTCHAR 00AB
ENCODING 171
SWIDTH 514 0
DWIDTH 10 0
BBX 8 8 1 2
BITMAP
13
26
64
48
C8
6C
26
13
ENDCHAR
STARTCHAR 00AC
ENCODING 172
SWIDTH 514 0
DWIDTH 10 0
BBX 9 5 1 2
BITMAP
FF80
0180
0180
0180
0180
ENDCHAR
STARTCHAR 00AE
ENCODING 174
SWIDTH 462 0
DWIDTH 9 0
BBX 8 7 1 7
BITMAP
3C
42
BA
A9
B9
82
7C
ENDCHAR
STARTCHAR 00AF
ENCODING 175
SWIDTH 257 0
DWIDTH 5 0
BBX 5 2 0 15
BITMAP
F8
F8
ENDCHAR
STARTCHAR 00B0
ENCODING 176
SWIDTH 308 0
DWIDTH 6 0
BBX 4 5 1 9
BITMAP
60
90
90
D0
20
ENDCHAR
STARTCHAR 00B1
ENCODING 177
SWIDTH 514 0
DWIDTH 10 0
BBX 9 8 1 2
BITMAP
0800
0800
FF80
0800
0800
0800
0000
FF80
ENDCHAR
STARTCHAR 00B4
ENCODING 180
SWIDTH 102 0
DWIDTH 2 0
BBX 2 2 0 15
BITMAP
40
C0
ENDCHAR
STARTCHAR 00B6
ENCODING 182
SWIDTH 411 0
DWIDTH 8 0
BBX 7 16 1 -2
BITMAP
1A
7A
FA
FA
FA
FA
7A
3A
0A
0A
0A
0A
0A
0A
0A
0A
ENDCHAR
STARTCHAR 00B7
ENCODING 183
SWIDTH 205 0
DWIDTH 4 0
BBX 3 2 1 4
BITMAP
E0
E0
ENDCHAR
STARTCHAR 00B8
ENCODING 184
SWIDTH 205 0
DWIDTH 4 0
BBX 4 4 0 -4
BITMAP
20
10
90
70
ENDCHAR
STARTCHAR 00BB
ENCODING 187
SWIDTH 514 0
DWIDTH 10 0
BBX 7 8 2 2
BITMAP
90
C8
6C
26
26
6C
C8
90
ENDCHAR
STARTCHAR 00BF
ENCODING 191
SWIDTH 411 0
DWIDTH 8 0
BBX 6 14 1 -2
BITMAP
30
38
10
00
00
10
10
30
60
40
C0
84
CC
78
ENDCHAR
STARTCHAR 00C0
ENCODING 192
SWIDTH 514 0
DWIDTH 10 0
BBX 9 17 1 0
BITMAP
3000
1000
0000
3C00
6600
C300
C300
8100
8100
8100
8100
8100
8100
8100
8100
8100
FF80
ENDCHAR
STARTCHAR 00C1
ENCODING 193
SWIDTH 514 0
DWIDTH 10 0
BBX 9 17 1 0
BITMAP
0C00
0800
0000
3C00
6600
C300
C300
8100
8100
8100
8100
8100
8100
8100
8100
8100
FF80
ENDCHAR
STARTCHAR 00C2
ENCODING 194
SWIDTH 514 0
DWIDTH 10 0
BBX 9 17 1 0
BITMAP
1800
2400
0000
3C00
6600
C300
C300
8100
8100
8100
8100
8100
8100
8100
8100
8100
FF80
ENDCHAR
STARTCHAR 00C3
ENCODING 195
SWIDTH 514 0
DWIDTH 10 0
BBX 9 17 1 0
BITMAP
7C00
0000
0000
3C00
6600
C300
C300
8100
8100
8100
8100
8100
8100
8100
8100
8100
FF80
ENDCHAR
STARTCHAR 00C4
ENCODING 196
SWIDTH 514 0
DWIDTH 10 0
BBX 9 17 1 0
BITMAP
6600
6600
0000
3C00
6600
C300
C300
8100
8100
8100
8100
8100
8100
8100
8100
8100
FF80
ENDCHAR
STARTCHAR 00C5
ENCODING 197
SWIDTH 514 0
DWIDTH 10 0
BBX 9 19 1 0
BITMAP
1800
2400
2400
3C00
0000
3C00
6600
C300
C300
8100
8100
8100
8100
8100
8100
8100
8100
8100
FF80
ENDCHAR
STARTCHAR 00C7
ENCODING 199
SWIDTH 668 0
DWIDTH 13 0
BBX 12 18 1 -4
BITMAP
0F80
3CE0
6030
4000
C000
8000
8000
8000
8000
C000
C000
6030
3860
1FC0
0200
0100
0900
0700
ENDCHAR
STARTCHAR 00C8
ENCODING 200
SWIDTH 462 0
DWIDTH 9 0
BBX 9 17 0 0
BITMAP
1000
0800
0000
3E00
3E00
2000
2000
2000
2000
FF00
FF00
2000
2000
2000
2000
2000
3F80
ENDCHAR
STARTCHAR 00C9
ENCODING 201
SWIDTH 462 0
DWIDTH 9 0
BBX 9 17 0 0
BITMAP
0400
0800
0000
3E00
3E00
2000
2000
2000
2000
FF00
FF00
2000
2000
2000
2000
2000
3F80
ENDCHAR
STARTCHAR 00CA
ENCODING 202
SWIDTH 462 0
DWIDTH 9 0
BBX 9 17 0 0
BITMAP
1C00
3600
0000
3E00
3E00
2000
2000
2000
2000
FF00
FF00
2000
2000
2000
2000
2000
3F80
ENDCHAR
STARTCHAR 00CB
ENCODING 203
SWIDTH 462 0
DWIDTH 9 0
BBX 9 17 0 0
BITMAP
7700
7700
0000
3E00
3E00
2000
2000
2000
2000
FF00
FF00
2000
2000
2000
2000
2000
3F80
ENDCHAR
STARTCHAR 00CC
ENCODING 204
SWIDTH 154 0
DWIDTH 3 0
BBX 3 12 0 0
BITMAP
80
40
20
00
40
40
40
40
40
40
40
40
ENDCHAR
STARTCHAR 00CD
ENCODING 205
SWIDTH 154 0
DWIDTH 3 0
BBX 2 12 1 0
BITMAP
40
C0
80
00
80
80
80
80
80
80
80
80
ENDCHAR
STARTCHAR 00CE
ENCODING 206
SWIDTH 154 0
DWIDTH 3 0
BBX 6 12 -1 0
BITMAP
70
58
8C
00
20
20
20
20
20
20
20
20
ENDCHAR
STARTCHAR 00CF
ENCODING 207
SWIDTH 154 0
DWIDTH 3 0
BBX 7 12 -2 0
BITMAP
66
E6
46
00
10
10
10
10
10
10
10
10
ENDCHAR
STARTCHAR 00D1
ENCODING 209
SWIDTH 462 0
DWIDTH 9 0
BBX 8 17 1 0
BITMAP
7C
00
00
83
C3
E3
BB
8F
87
83
83
83
83
83
83
83
83
ENDCHAR
STARTCHAR 00D2
ENCODING 210
SWIDTH 771 0
DWIDTH 15 0
BBX 14 17 1 0
BITMAP
0600
0200
0000
0F80
3CE0
6030
4018
C00C
800C
8004
8004
8004
C00C
C008
6018
3870
1FC0
ENDCHAR
STARTCHAR 00D3
ENCODING 211
SWIDTH 771 0
DWIDTH 15 0
BBX 14 17 1 0
BITMAP
0100
0300
0000
0F80
3CE0
6030
4018
C00C
800C
8004
8004
8004
C00C
C008
6018
3870
1FC0
ENDCHAR
STARTCHAR 00D4
ENCODING 212
SWIDTH 771 0
DWIDTH 15 0
BBX 14 17 1 0
BITMAP
0700
0480
0000
0F80
3CE0
6030
4018
C00C
800C
8004
8004
8004
C00C
C008
6018
3870
1FC0
ENDCHAR
STARTCHAR 00D5
ENCODING 213
SWIDTH 771 0
DWIDTH 15 0
BBX 14 17 1 0
BITMAP
0F80
0000
0000
0F80
3CE0
6030
4018
C00C
800C
8004
8004
8004
C00C
C008
6018
3870
1FC0
ENDCHAR
STARTCHAR 00D6
ENCODING 214
SWIDTH 771 0
DWIDTH 15 0
BBX 14 17 1 0
BITMAP
0CC0
0CC0
0000
0F80
3CE0
6030
4018
C00C
800C
8004
8004
8004
C00C
C008
6018
3870
1FC0
ENDCHAR
STARTCHAR 00D7
ENCODING 215
SWIDTH 462 0
DWIDTH 9 0
BBX 8 7 1 3
BITMAP
C3
66
3C
18
3C
66
C3
ENDCHAR
STARTCHAR 00D8
ENCODING 216
SWIDTH 771 0
DWIDTH 15 0
BBX 15 14 0 -1
BITMAP
07C4
1E78
3018
603C
6064
40C6
C186
C106
4206
4406
680C
380C
3838
6FE0
ENDCHAR
STARTCHAR 00D9
ENCODING 217
SWIDTH 462 0
DWIDTH 9 0
BBX 8 17 1 0
BITMAP
30
10
00
83
83
83
83
83
83
83
83
83
83
83
C3
46
7C
ENDCHAR
STARTCHAR 00DA
ENCODING 218
SWIDTH 462 0
DWIDTH 9 0
BBX 8 17 1 0
BITMAP
08
10
00
83
83
83
83
83
83
83
83
83
83
83
C3
46
7C
ENDCHAR
STARTCHAR 00DB
ENCODING 219
SWIDTH 462 0
DWIDTH 9 0
BBX 8 17 1 0
BITMAP
38
24
40
83
83
83
83
83
83
83
83
83
83
83
C3
46
7C
ENDCHAR
STARTCHAR 00DC
ENCODING 220
SWIDTH 462 0
DWIDTH 9 0
BBX 8 17 1 0
BITMAP
66
66
00
83
83
83
83
83
83
83
83
83
83
83
C3
46
7C
ENDCHAR
STARTCHAR 00DD
ENCODING 221
SWIDTH 462 0
DWIDTH 9 0
BBX 8 17 1 0
BITMAP
08
10
00
83
83
83
83
83
83
83
83
C2
7E
38
10
10
10
ENDCHAR
STARTCHAR 00E0
ENCODING 224
SWIDTH 514 0
DWIDTH 10 0
BBX 9 17 1 0
BITMAP
3000
1000
0000
3C00
6600
C300
C300
8100
8100
8100
8100
8100
8100
8100
8100
8100
FF80
ENDCHAR
STARTCHAR 00E1
ENCODING 225
SWIDTH 514 0
DWIDTH 10 0
BBX 9 17 1 0
BITMAP
0C00
0800
0000
3C00
6600
C300
C300
8100
8100
8100
8100
8100
8100
8100
8100
8100
FF80
ENDCHAR
STARTCHAR 00E2
ENCODING 226
SWIDTH 514 0
DWIDTH 10 0
BBX 9 17 1 0
BITMAP
1800
2400
0000
3C00
6600
C300
C300
8100
8100
8100
8100
8100
8100
8100
8100
8100
FF80
ENDCHAR
STARTCHAR 00E3
ENCODING 227
SWIDTH 514 0
DWIDTH 10 0
BBX 9 17 1 0
BITMAP
7C00
0000
0000
3C00
6600
C300
C300
8100
8100
8100
8100
8100
8100
8100
8100
8100
FF80
ENDCHAR
STARTCHAR 00E4
ENCODING 228
SWIDTH 514 0
DWIDTH 10 0
BBX 9 17 1 0
BITMAP
6600
6600
0000
3C00
6600
C300
C300
8100
8100
8100
8100
8100
8100
8100
8100
8100
FF80
ENDCHAR
STARTCHAR 00E5
ENCODING 229
SWIDTH 514 0
DWIDTH 10 0
BBX 9 19 1 0
BITMAP
1800
2400
2400
3C00
0000
3C00
6600
C300
C300
8100
8100
8100
8100
8100
8100
8100
8100
8100
FF80
ENDCHAR
STARTCHAR 00E7
ENCODING 231
SWIDTH 668 0
DWIDTH 13 0
BBX 12 18 1 -4
BITMAP
0F80
3CE0
6030
4000
C000
8000
8000
8000
8000
C000
C000
6030
3860
1FC0
0200
0100
0900
0700
ENDCHAR
STARTCHAR 00E8
ENCODING 232
SWIDTH 462 0
DWIDTH 9 0
BBX 9 17 0 0
BITMAP
1000
0800
0000
3E00
3E00
2000
2000
2000
2000
FF00
FF00
2000
2000
2000
2000
2000
3F80
ENDCHAR
STARTCHAR 00E9
ENCODING 233
SWIDTH 462 0
DWIDTH 9 0
BBX 9 17 0 0
BITMAP
0400
0800
0000
3E00
3E00
2000
2000
2000
2000
FF00
FF00
2000
2000
2000
2000
2000
3F80
ENDCHAR
STARTCHAR 00EA
ENCODING 234
SWIDTH 462 0
DWIDTH 9 0
BBX 9 17 0 0
BITMAP
1C00
3600
0000
3E00
3E00
2000
2000
2000
2000
FF00
FF00
2000
2000
2000
2000
2000
3F80
ENDCHAR
STARTCHAR 00EB
ENCODING 235
SWIDTH 462 0
DWIDTH 9 0
BBX 9 17 0 0
BITMAP
7700
7700
0000
3E00
3E00
2000
2000
2000
2000
FF00
FF00
2000
2000
2000
2000
2000
3F80
ENDCHAR
STARTCHAR 00EC
ENCODING 236
SWIDTH 154 0
DWIDTH 3 0
BBX 3 12 0 0
BITMAP
80
40
20
00
40
40
40
40
40
40
40
40
ENDCHAR
STARTCHAR 00ED
ENCODING 237
SWIDTH 154 0
DWIDTH 3 0
BBX 2 12 1 0
BITMAP
40
C0
80
00
80
80
80
80
80
80
80
80
ENDCHAR
STARTCHAR 00EE
ENCODING 238
SWIDTH 154 0
DWIDTH 3 0
BBX 6 12 -1 0
BITMAP
70
58
8C
00
20
20
20
20
20
20
20
20
ENDCHAR
STARTCHAR 00EF
ENCODING 239
SWIDTH 154 0
DWIDTH 3 0
BBX 7 12 -2 0
BITMAP
66
E6
46
00
10
10
10
10
10
10
10
10
ENDCHAR
STARTCHAR 00F1
ENCODING 241
SWIDTH 462 0
DWIDTH 9 0
BBX 8 17 1 0
BITMAP
7C
00
00
83
C3
E3
BB
8F
87
83
83
83
83
83
83
83
83
ENDCHAR
STARTCHAR 00F2
ENCODING 242
SWIDTH 771 0
DWIDTH 15 0
BBX 14 17 1 0
BITMAP
0600
0200
0000
0F80
3CE0
6030
4018
C00C
800C
8004
8004
8004
C00C
C008
6018
3870
1FC0
ENDCHAR
STARTCHAR 00F3
ENCODING 243
SWIDTH 771 0
DWIDTH 15 0
BBX 14 17 1 0
BITMAP
0100
0300
0000
0F80
3CE0
6030
4018
C00C
800C
8004
8004
8004
C00C
C008
6018
3870
1FC0
ENDCHAR
STARTCHAR 00F4
ENCODING 244
SWIDTH 771 0
DWIDTH 15 0
BBX 14 17 1 0
BITMAP
0700
0480
0000
0F80
3CE0
6030
4018
C00C
800C
8004
8004
8004
C00C
C008
6018
3870
1FC0
ENDCHAR
STARTCHAR 00F5
ENCODING 245
SWIDTH 771 0
DWIDTH 15 0
BBX 14 17 1 0
BITMAP
0F80
0000
0000
0F80
3CE0
6030
4018
C00C
800C
8004
8004
8004
C00C
C008
6018
3870
1FC0
ENDCHAR
STARTCHAR 00F6
ENCODING 246
SWIDTH 771 0
DWIDTH 15 0
BBX 14 17 1 0
BITMAP
0CC0
0CC0
0000
0F80
3CE0
6030
4018
C00C
800C
8004
8004
8004
C00C
C008
6018
3870
1FC0
ENDCHAR
STARTCHAR 00F7
ENCODING 247
SWIDTH 514 0
DWIDTH 10 0
BBX 9 8 1 2
BITMAP
1800
1800
0000
FF80
0000
0000
1C00
1800
ENDCHAR
STARTCHAR 00F8
ENCODING 248
SWIDTH 771 0
DWIDTH 15 0
BBX 15 14 0 -1
BITMAP
07C4
1E78
3018
603C
6064
40C6
C186
C106
4206
4406
680C
380C
3838
6FE0
ENDCHAR
STARTCHAR 00F9
ENCODING 249
SWIDTH 462 0
DWIDTH 9 0
BBX 8 17 1 0
BITMAP
30
10
00
83
83
83
83
83
83
83
83
83
83
83
C3
46
7C
ENDCHAR
STARTCHAR 00FA
ENCODING 250
SWIDTH 462 0
DWIDTH 9 0
BBX 8 17 1 0
BITMAP
08
10
00
83
83
83
83
83
83
83
83
83
83
83
C3
46
7C
ENDCHAR
STARTCHAR 00FB
ENCODING 251
SWIDTH 462 0
DWIDTH 9 0
BBX 8 17 1 0
BITMAP
38
24
40
83
83
83
83
83
83
83
83
83
83
83
C3
46
7C
ENDCHAR
STARTCHAR 00FC
ENCODING 252
SWIDTH 462 0
DWIDTH 9 0
BBX 8 17 1 0
BITMAP
66
66
00
83
83
83
83
83
83
83
83
83
83
83
C3
46
7C
ENDCHAR
STARTCHAR 00FD
ENCODING 253
SWIDTH 462 0
DWIDTH 9 0
BBX 8 17 1 0
BITMAP
08
10
00
83
83
83
83
83
83
83
83
C2
7E
38
10
10
10
ENDCHAR
STARTCHAR 00FF
ENCODING 255
SWIDTH 462 0
DWIDTH 9 0
BBX 8 17 1 0
BITMAP
66
E6
00
83
83
83
83
83
83
83
83
C2
7E
38
10
10
10
ENDCHAR
STARTCHAR 0100
ENCODING 256
SWIDTH 514 0
DWIDTH 10 0
BBX 9 17 1 0
BITMAP
7E00
7E00
0000
3C00
6600
C300
C300
8100
8100
8100
8100
8100
8100
8100
8100
8100
FF80
ENDCHAR
STARTCHAR 0101
ENCODING 257
SWIDTH 514 0
DWIDTH 10 0
BBX 9 17 1 0
BITMAP
7E00
7E00
0000
3C00
6600
C300
C300
8100
8100
8100
8100
8100
8100
8100
8100
8100
FF80
ENDCHAR
STARTCHAR 0102
ENCODING 258
SWIDTH 514 0
DWIDTH 10 0
BBX 9 17 1 0
BITMAP
2400
3C00
0000
3C00
6600
C300
C300
8100
8100
8100
8100
8100
8100
8100
8100
8100
FF80
ENDCHAR
STARTCHAR 0103
ENCODING 259
SWIDTH 514 0
DWIDTH 10 0
BBX 9 17 1 0
BITMAP
2400
3C00
0000
3C00
6600
C300
C300
8100
8100
8100
8100
8100
8100
8100
8100
8100
FF80
ENDCHAR
STARTCHAR 0104
ENCODING 260
SWIDTH 514 0
DWIDTH 10 0
BBX 10 17 1 -3
BITMAP
3C00
6600
C300
C300
8100
8100
8100
8100
8100
8100
8100
8100
8100
FF80
0100
0200
01C0
ENDCHAR
STARTCHAR 0105
ENCODING 261
SWIDTH 514 0
DWIDTH 10 0
BBX 10 17 1 -3
BITMAP
3C00
6600
C300
C300
8100
8100
8100
8100
8100
8100
8100
8100
8100
FF80
0100
0200
01C0
ENDCHAR
STARTCHAR 0106
ENCODING 262
SWIDTH 668 0
DWIDTH 13 0
BBX 12 17 1 0
BITMAP
0100
0200
0000
0F80
3CE0
6030
4000
C000
8000
8000
8000
8000
C000
C000
6030
3860
1FC0
ENDCHAR
STARTCHAR 0107
ENCODING 263
SWIDTH 668 0
DWIDTH 13 0
BBX 12 17 1 0
BITMAP
0100
0200
0000
0F80
3CE0
6030
4000
C000
8000
8000
8000
8000
C000
C000
6030
3860
1FC0
ENDCHAR
STARTCHAR 010A
ENCODING 266
SWIDTH 668 0
DWIDTH 13 0
BBX 12 18 1 0
BITMAP
0300
0300
0300
0000
0F80
3CE0
6030
4000
C000
8000
8000
8000
8000
C000
C000
6030
3860
1FC0
ENDCHAR
STARTCHAR 010B
ENCODING 267
SWIDTH 668 0
DWIDTH 13 0
BBX 12 18 1 0
BITMAP
0300
0300
0300
0000
0F80
3CE0
6030
4000
C000
8000
8000
8000
8000
C000
C000
6030
3860
1FC0
ENDCHAR
STARTCHAR 010C
ENCODING 268
SWIDTH 668 0
DWIDTH 13 0
BBX 12 18 1 0
BITMAP
08C0
0580
0300
0000
0F80
3CE0
6030
4000
C000
8000
8000
8000
8000
C000
C000
6030
3860
1FC0
ENDCHAR
STARTCHAR 010D
ENCODING 269
SWIDTH 668 0
DWIDTH 13 0
BBX 12 18 1 0
BITMAP
08C0
0580
0300
0000
0F80
3CE0
6030
4000
C000
8000
8000
8000
8000
C000
C000
6030
3860
1FC0
ENDCHAR
STARTCHAR 010E
ENCODING 270
SWIDTH 617 0
DWIDTH 12 0
BBX 11 18 1 0
BITMAP
6200
3400
1800
0000
F800
FF00
8180
80C0
8040
8060
8060
8060
8060
8040
80C0
8180
8700
FC00
ENDCHAR
STARTCHAR 010F
ENCODING 271
SWIDTH 617 0
DWIDTH 12 0
BBX 11 18 1 0
BITMAP
6200
3400
1800
0000
F800
FF00
8180
80C0
8040
8060
8060
8060
8060
8040
80C0
8180
8700
FC00
ENDCHAR
STARTCHAR 0110
ENCODING 272
SWIDTH 668 0
DWIDTH 13 0
BBX 12 14 0 0
BITMAP
3E00
3FC0
20E0
2030
2030
2010
FE10
FE10
2010
2010
2030
2060
21C0
3F00
ENDCHAR
STARTCHAR 0111
ENCODING 273
SWIDTH 668 0
DWIDTH 13 0
BBX 12 14 0 0
BITMAP
3E00
3FC0
20E0
2030
2030
2010
FE10
FE10
2010
2010
2030
2060
21C0
3F00
ENDCHAR
STARTCHAR 0112
ENCODING 274
SWIDTH 462 0
DWIDTH 9 0
BBX 9 17 0 0
BITMAP
3E00
3E00
0000
3E00
3E00
2000
2000
2000
2000
FF00
FF00
2000
2000
2000
2000
2000
3F80
ENDCHAR
STARTCHAR 0113
ENCODING 275
SWIDTH 462 0
DWIDTH 9 0
BBX 9 17 0 0
BITMAP
3E00
3E00
0000
3E00
3E00
2000
2000
2000
2000
FF00
FF00
2000
2000
2000
2000
2000
3F80
ENDCHAR
STARTCHAR 0116
ENCODING 278
SWIDTH 462 0
DWIDTH 9 0
BBX 9 18 0 0
BITMAP
0800
1C00
0C00
0000
3E00
3E00
2000
2000
2000
2000
FF00
FF00
2000
2000
2000
2000
2000
3F80
ENDCHAR
STARTCHAR 0117
ENCODING 279
SWIDTH 462 0
DWIDTH 9 0
BBX 9 18 0 0
BITMAP
0800
1C00
0C00
0000
3E00
3E00
2000
2000
2000
2000
FF00
FF00
2000
2000
2000
2000
2000
3F80
ENDCHAR
STARTCHAR 0118
ENCODING 280
SWIDTH 462 0
DWIDTH 9 0
BBX 10 17 0 -3
BITMAP
3E00
3E00
2000
2000
2000
2000
FF00
FF00
2000
2000
2000
2000
2000
3F80
0100
0100
01C0
ENDCHAR
STARTCHAR 0119
ENCODING 281
SWIDTH 462 0
DWIDTH 9 0
BBX 10 17 0 -3
BITMAP
3E00
3E00
2000
2000
2000
2000
FF00
FF00
2000
2000
2000
2000
2000
3F80
0100
0100
01C0
ENDCHAR
STARTCHAR 011A
ENCODING 282
SWIDTH 462 0
DWIDTH 9 0
BBX 9 18 0 0
BITMAP
2200
1400
1C00
0000
3E00
3E00
2000
2000
2000
2000
FF00
FF00
2000
2000
2000
2000
2000
3F80
ENDCHAR
STARTCHAR 011B
ENCODING 283
SWIDTH 462 0
DWIDTH 9 0
BBX 9 18 0 0
BITMAP
2200
1400
1C00
0000
3E00
3E00
2000
2000
2000
2000
FF00
FF00
2000
2000
2000
2000
2000
3F80
ENDCHAR
STARTCHAR 011E
ENCODING 286
SWIDTH 822 0
DWIDTH 16 0
BBX 15 17 1 0
BITMAP
0880
0780
0000
0F80
3CE0
6030
4000
C000
8000
83FE
83FE
800C
C00C
C018
6018
3870
1FC0
ENDCHAR
STARTCHAR 011F
ENCODING 287
SWIDTH 822 0
DWIDTH 16 0
BBX 15 17 1 0
BITMAP
0880
0780
0000
0F80
3CE0
6030
4000
C000
8000
83FE
83FE
800C
C00C
C018
6018
3870
1FC0
ENDCHAR
STARTCHAR 0120
ENCODING 288
SWIDTH 822 0
DWIDTH 16 0
BBX 15 18 1 0
BITMAP
0300
0300
0300
0000
0F80
3CE0
6030
4000
C000
8000
83FE
83FE
800C
C00C
C018
6018
3870
1FC0
ENDCHAR
STARTCHAR 0121
ENCODING 289
SWIDTH 822 0
DWIDTH 16 0
BBX 15 18 1 0
BITMAP
0300
0300
0300
0000
0F80
3CE0
6030
4000
C000
8000
83FE
83FE
800C
C00C
C018
6018
3870
1FC0
ENDCHAR
STARTCHAR 0124
ENCODING 292
SWIDTH 514 0
DWIDTH 10 0
BBX 10 17 0 0
BITMAP
0E00
1900
0000
20C0
20C0
20C0
20C0
20C0
20C0
FFC0
20C0
20C0
20C0
20C0
20C0
20C0
20C0
ENDCHAR
STARTCHAR 0125
ENCODING 293
SWIDTH 514 0
DWIDTH 10 0
BBX 10 17 0 0
BITMAP
0E00
1900
0000
20C0
20C0
20C0
20C0
20C0
20C0
FFC0
20C0
20C0
20C0
20C0
20C0
20C0
20C0
ENDCHAR
STARTCHAR 0128
ENCODING 296
SWIDTH 154 0
DWIDTH 3 0
BBX 5 12 -1 0
BITMAP
E8
10
00
00
20
20
20
20
20
20
20
20
ENDCHAR
STARTCHAR 0129
ENCODING 297
SWIDTH 154 0
DWIDTH 3 0
BBX 5 12 -1 0
BITMAP
E8
10
00
00
20
20
20
20
20
20
20
20
ENDCHAR
STARTCHAR 012A
ENCODING 298
SWIDTH 154 0
DWIDTH 3 0
BBX 5 11 -1 0
BITMAP
F8
00
00
20
20
20
20
20
20
20
20
ENDCHAR
STARTCHAR 012B
ENCODING 299
SWIDTH 154 0
DWIDTH 3 0
BBX 5 11 -1 0
BITMAP
F8
00
00
20
20
20
20
20
20
20
20
ENDCHAR
STARTCHAR 012E
ENCODING 302
SWIDTH 154 0
DWIDTH 3 0
BBX 5 18 -1 -3
BITMAP
20
F8
30
50
00
00
00
20
20
20
20
20
20
20
20
40
80
70
ENDCHAR
STARTCHAR 012F
ENCODING 303
SWIDTH 154 0
DWIDTH 3 0
BBX 5 18 -1 -3
BITMAP
20
F8
30
50
00
00
00
20
20
20
20
20
20
20
20
40
80
70
ENDCHAR
STARTCHAR 0130
ENCODING 304
SWIDTH 154 0
DWIDTH 3 0
BBX 2 12 1 0
BITMAP
C0
C0
00
00
80
80
80
80
80
80
80
80
ENDCHAR
STARTCHAR 0139
ENCODING 313
SWIDTH 411 0
DWIDTH 8 0
BBX 7 17 1 0
BITMAP
40
80
00
80
80
80
80
80
80
80
80
80
80
80
80
80
FE
ENDCHAR
STARTCHAR 013A
ENCODING 314
SWIDTH 411 0
DWIDTH 8 0
BBX 7 17 1 0
BITMAP
40
80
00
80
80
80
80
80
80
80
80
80
80
80
80
80
FE
ENDCHAR
STARTCHAR 013D
ENCODING 317
SWIDTH 411 0
DWIDTH 8 0
BBX 9 18 -1 0
BITMAP
8C00
5800
3000
0000
2000
2000
2000
2000
2000
2000
2000
2000
2000
2000
2000
2000
2000
3F80
ENDCHAR
STARTCHAR 013E
ENCODING 318
SWIDTH 411 0
DWIDTH 8 0
BBX 9 18 -1 0
BITMAP
8C00
5800
3000
0000
2000
2000
2000
2000
2000
2000
2000
2000
2000
2000
2000
2000
2000
3F80
ENDCHAR
STARTCHAR 0141
ENCODING 321
SWIDTH 462 0
DWIDTH 9 0
BBX 9 14 0 0
BITMAP
2000
2000
2000
2000
2000
2400
3800
6000
A000
2000
2000
2000
2000
3F80
ENDCHAR
STARTCHAR 0142
ENCODING 322
SWIDTH 462 0
DWIDTH 9 0
BBX 9 14 0 0
BITMAP
2000
2000
2000
2000
2000
2400
3800
6000
A000
2000
2000
2000
2000
3F80
ENDCHAR
STARTCHAR 0143
ENCODING 323
SWIDTH 462 0
DWIDTH 9 0
BBX 8 17 1 0
BITMAP
08
18
00
83
C3
E3
BB
8F
87
83
83
83
83
83
83
83
83
ENDCHAR
STARTCHAR 0144
ENCODING 324
SWIDTH 462 0
DWIDTH 9 0
BBX 8 17 1 0
BITMAP
08
18
00
83
C3
E3
BB
8F
87
83
83
83
83
83
83
83
83
ENDCHAR
STARTCHAR 0147
ENCODING 327
SWIDTH 462 0
DWIDTH 9 0
BBX 8 18 1 0
BITMAP
46
24
18
00
83
C3
E3
BB
8F
87
83
83
83
83
83
83
83
83
ENDCHAR
STARTCHAR 0148
ENCODING 328
SWIDTH 462 0
DWIDTH 9 0
BBX 8 18 1 0
BITMAP
46
24
18
00
83
C3
E3
BB
8F
87
83
83
83
83
83
83
83
83
ENDCHAR
STARTCHAR 014C
ENCODING 332
SWIDTH 771 0
DWIDTH 15 0
BBX 14 17 1 0
BITMAP
0FC0
0FC0
0000
0F80
3CE0
6030
4018
C00C
800C
8004
8004
8004
C00C
C008
6018
3870
1FC0
ENDCHAR
STARTCHAR 014D
ENCODING 333
SWIDTH 771 0
DWIDTH 15 0
BBX 14 17 1 0
BITMAP
0FC0
0FC0
0000
0F80
3CE0
6030
4018
C00C
800C
8004
8004
8004
C00C
C008
6018
3870
1FC0
ENDCHAR
STARTCHAR 0150
ENCODING 336
SWIDTH 771 0
DWIDTH 15 0
BBX 14 17 1 0
BITMAP
0240
0480
0000
0F80
3CE0
6030
4018
C00C
800C
8004
8004
8004
C00C
C008
6018
3870
1FC0
ENDCHAR
STARTCHAR 0151
ENCODING 337
SWIDTH 771 0
DWIDTH 15 0
BBX 14 17 1 0
BITMAP
0240
0480
0000
0F80
3CE0
6030
4018
C00C
800C
8004
8004
8004
C00C
C008
6018
3870
1FC0
ENDCHAR
STARTCHAR 0154
ENCODING 340
SWIDTH 565 0
DWIDTH 11 0
BBX 10 17 0 0
BITMAP
0200
0400
0000
3E00
3F80
20C0
2040
2040
2040
20C0
FF80
FF80
2080
20C0
20C0
20C0
20C0
ENDCHAR
STARTCHAR 0155
ENCODING 341
SWIDTH 565 0
DWIDTH 11 0
BBX 10 17 0 0
BITMAP
0200
0400
0000
3E00
3F80
20C0
2040
2040
2040
20C0
FF80
FF80
2080
20C0
20C0
20C0
20C0
ENDCHAR
STARTCHAR 0158
ENCODING 344
SWIDTH 565 0
DWIDTH 11 0
BBX 10 18 0 0
BITMAP
1100
1A00
0E00
0000
3E00
3F80
20C0
2040
2040
2040
20C0
FF80
FF80
2080
20C0
20C0
20C0
20C0
ENDCHAR
STARTCHAR 0159
ENCODING 345
SWIDTH 565 0
DWIDTH 11 0
BBX 10 18 0 0
BITMAP
1100
1A00
0E00
0000
3E00
3F80
20C0
2040
2040
2040
20C0
FF80
FF80
2080
20C0
20C0
20C0
20C0
ENDCHAR
STARTCHAR 015A
ENCODING 346
SWIDTH 462 0
DWIDTH 9 0
BBX 8 17 1 0
BITMAP
08
10
00
3C
6E
C2
C2
C0
60
38
0C
06
03
83
83
C6
7C
ENDCHAR
STARTCHAR 015B
ENCODING 347
SWIDTH 462 0
DWIDTH 9 0
BBX 8 17 1 0
BITMAP
08
10
00
3C
6E
C2
C2
C0
60
38
0C
06
03
83
83
C6
7C
ENDCHAR
STARTCHAR 015E
ENCODING 350
SWIDTH 462 0
DWIDTH 9 0
BBX 8 18 1 -4
BITMAP
3C
6E
C2
C2
C0
60
38
0C
06
03
83
83
C6
7C
10
08
04
38
ENDCHAR
STARTCHAR 015F
ENCODING 351
SWIDTH 462 0
DWIDTH 9 0
BBX 8 18 1 -4
BITMAP
3C
6E
C2
C2
C0
60
38
0C
06
03
83
83
C6
7C
10
08
04
38
ENDCHAR
STARTCHAR 0160
ENCODING 352
SWIDTH 462 0
DWIDTH 9 0
BBX 8 18 1 0
BITMAP
44
2C
38
00
3C
6E
C2
C2
C0
60
38
0C
06
03
83
83
C6
7C
ENDCHAR
STARTCHAR 0161
ENCODING 353
SWIDTH 462 0
DWIDTH 9 0
BBX 8 18 1 0
BITMAP
44
2C
38
00
3C
6E
C2
C2
C0
60
38
0C
06
03
83
83
C6
7C
ENDCHAR
STARTCHAR 0162
ENCODING 354
SWIDTH 462 0
DWIDTH 9 0
BBX 9 18 0 -4
BITMAP
FF80
FF80
0C00
0C00
0C00
0C00
0C00
0C00
0C00
0C00
0C00
0C00
0C00
0C00
0800
0400
0400
1C00
ENDCHAR
STARTCHAR 0163
ENCODING 355
SWIDTH 462 0
DWIDTH 9 0
BBX 9 18 0 -4
BITMAP
FF80
FF80
0C00
0C00
0C00
0C00
0C00
0C00
0C00
0C00
0C00
0C00
0C00
0C00
0800
0400
0400
1C00
ENDCHAR
STARTCHAR 0164
ENCODING 356
SWIDTH 462 0
DWIDTH 9 0
BBX 9 18 0 0
BITMAP
2300
1600
0C00
0000
FF80
FF80
0C00
0C00
0C00
0C00
0C00
0C00
0C00
0C00
0C00
0C00
0C00
0C00
ENDCHAR
STARTCHAR 0165
ENCODING 357
SWIDTH 462 0
DWIDTH 9 0
BBX 9 18 0 0
BITMAP
2300
1600
0C00
0000
FF80
FF80
0C00
0C00
0C00
0C00
0C00
0C00
0C00
0C00
0C00
0C00
0C00
0C00
ENDCHAR
STARTCHAR 0168
ENCODING 360
SWIDTH 462 0
DWIDTH 9 0
BBX 8 17 1 0
BITMAP
7C
00
00
83
83
83
83
83
83
83
83
83
83
83
C3
46
7C
ENDCHAR
STARTCHAR 0169
ENCODING 361
SWIDTH 462 0
DWIDTH 9 0
BBX 8 17 1 0
BITMAP
7C
00
00
83
83
83
83
83
83
83
83
83
83
83
C3
46
7C
ENDCHAR
STARTCHAR 016A
ENCODING 362
SWIDTH 462 0
DWIDTH 9 0
BBX 8 17 1 0
BITMAP
7E
7E
00
83
83
83
83
83
83
83
83
83
83
83
C3
46
7C
ENDCHAR
STARTCHAR 016B
ENCODING 363
SWIDTH 462 0
DWIDTH 9 0
BBX 8 17 1 0
BITMAP
7E
7E
00
83
83
83
83
83
83
83
83
83
83
83
C3
46
7C
ENDCHAR
STARTCHAR 016E
ENCODING 366
SWIDTH 462 0
DWIDTH 9 0
BBX 8 19 1 0
BITMAP
18
24
24
38
00
83
83
83
83
83
83
83
83
83
83
83
C3
46
7C
ENDCHAR
STARTCHAR 016F
ENCODING 367
SWIDTH 462 0
DWIDTH 9 0
BBX 8 19 1 0
BITMAP
18
24
24
38
00
83
83
83
83
83
83
83
83
83
83
83
C3
46
7C
ENDCHAR
STARTCHAR 0170
ENCODING 368
SWIDTH 462 0
DWIDTH 9 0
BBX 8 17 1 0
BITMAP
12
24
00
83
83
83
83
83
83
83
83
83
83
83
C3
46
7C
ENDCHAR
STARTCHAR 0171
ENCODING 369
SWIDTH 462 0
DWIDTH 9 0
BBX 8 17 1 0
BITMAP
12
24
00
83
83
83
83
83
83
83
83
83
83
83
C3
46
7C
ENDCHAR
STARTCHAR 0172
ENCODING 370
SWIDTH 462 0
DWIDTH 9 0
BBX 8 18 1 -4
BITMAP
83
83
83
83
83
83
83
83
83
83
83
C3
46
7C
10
20
20
18
ENDCHAR
STARTCHAR 0173
ENCODING 371
SWIDTH 462 0
DWIDTH 9 0
BBX 8 18 1 -4
BITMAP
83
83
83
83
83
83
83
83
83
83
83
C3
46
7C
10
20
20
18
ENDCHAR
STARTCHAR 0176
ENCODING 374
SWIDTH 462 0
DWIDTH 9 0
BBX 8 17 1 0
BITMAP
38
64
00
83
83
83
83
83
83
83
83
C2
7E
38
10
10
10
ENDCHAR
STARTCHAR 0177
ENCODING 375
SWIDTH 462 0
DWIDTH 9 0
BBX 8 17 1 0
BITMAP
38
64
00
83
83
83
83
83
83
83
83
C2
7E
38
10
10
10
ENDCHAR
STARTCHAR 0178
ENCODING 376
SWIDTH 462 0
DWIDTH 9 0
BBX 8 17 1 0
BITMAP
66
E6
00
83
83
83
83
83
83
83
83
C2
7E
38
10
10
10
ENDCHAR
STARTCHAR 0179
ENCODING 377
SWIDTH 462 0
DWIDTH 9 0
BBX 9 17 0 0
BITMAP
0400
0C00
0000
7F80
7F80
0100
0300
0200
0600
0C00
0800
1800
1000
3000
6000
4000
FF80
ENDCHAR
STARTCHAR 017A
ENCODING 378
SWIDTH 462 0
DWIDTH 9 0
BBX 9 17 0 0
BITMAP
0400
0C00
0000
7F80
7F80
0100
0300
0200
0600
0C00
0800
1800
1000
3000
6000
4000
FF80
ENDCHAR
STARTCHAR 017B
ENCODING 379
SWIDTH 462 0
DWIDTH 9 0
BBX 9 18 0 0
BITMAP
0C00
0C00
0C00
0000
7F80
7F80
0100
0300
0200
0600
0C00
0800
1800
1000
3000
6000
4000
FF80
ENDCHAR
STARTCHAR 017C
ENCODING 380
SWIDTH 462 0
DWIDTH 9 0
BBX 9 18 0 0
BITMAP
0C00
0C00
0C00
0000
7F80
7F80
0100
0300
0200
0600
0C00
0800
1800
1000
3000
6000
4000
FF80
ENDCHAR
STARTCHAR 017D
ENCODING 381
SWIDTH 462 0
DWIDTH 9 0
BBX 9 18 0 0
BITMAP
2300
1200
0C00
0000
7F80
7F80
0100
0300
0200
0600
0C00
0800
1800
1000
3000
6000
4000
FF80
ENDCHAR
STARTCHAR 017E
ENCODING 382
SWIDTH 462 0
DWIDTH 9 0
BBX 9 18 0 0
BITMAP
2300
1200
0C00
0000
7F80
7F80
0100
0300
0200
0600
0C00
0800
1800
1000
3000
6000
4000
FF80
ENDCHAR
STARTCHAR 01A0
ENCODING 416
SWIDTH 771 0
DWIDTH 15 0
BBX 14 15 1 0
BITMAP
0010
0FB0
3CE0
6030
4018
C00C
800C
8004
8004
8004
C00C
C008
6018
3870
1FC0
ENDCHAR
STARTCHAR 01A1
ENCODING 417
SWIDTH 771 0
DWIDTH 15 0
BBX 14 15 1 0
BITMAP
0010
0FB0
3CE0
6030
4018
C00C
800C
8004
8004
8004
C00C
C008
6018
3870
1FC0
ENDCHAR
STARTCHAR 01AF
ENCODING 431
SWIDTH 462 0
DWIDTH 9 0
BBX 9 15 1 0
BITMAP
0080
8380
8300
8300
8300
8300
8300
8300
8300
8300
8300
8300
C300
4600
7C00
ENDCHAR
STARTCHAR 01B0
ENCODING 432
SWIDTH 462 0
DWIDTH 9 0
BBX 9 15 1 0
BITMAP
0080
8380
8300
8300
8300
8300
8300
8300
8300
8300
8300
8300
C300
4600
7C00
ENDCHAR
STARTCHAR 01CD
ENCODING 461
SWIDTH 514 0
DWIDTH 10 0
BBX 9 18 1 0
BITMAP
4200
2400
1800
0000
3C00
6600
C300
C300
8100
8100
8100
8100
8100
8100
8100
8100
8100
FF80
ENDCHAR
STARTCHAR 01CE
ENCODING 462
SWIDTH 514 0
DWIDTH 10 0
BBX 9 18 1 0
BITMAP
4200
2400
1800
0000
3C00
6600
C300
C300
8100
8100
8100
8100
8100
8100
8100
8100
8100
FF80
ENDCHAR
STARTCHAR 01CF
ENCODING 463
SWIDTH 154 0
DWIDTH 3 0
BBX 5 12 -1 0
BITMAP
C8
70
00
00
20
20
20
20
20
20
20
20
ENDCHAR
STARTCHAR 01D0
ENCODING 464
SWIDTH 154 0
DWIDTH 3 0
BBX 5 12 -1 0
BITMAP
C8
70
00
00
20
20
20
20
20
20
20
20
ENDCHAR
STARTCHAR 01D1
ENCODING 465
SWIDTH 771 0
DWIDTH 15 0
BBX 14 18 1 0
BITMAP
08C0
0480
0300
0000
0F80
3CE0
6030
4018
C00C
800C
8004
8004
8004
C00C
C008
6018
3870
1FC0
ENDCHAR
STARTCHAR 01D2
ENCODING 466
SWIDTH 771 0
DWIDTH 15 0
BBX 14 18 1 0
BITMAP
08C0
0480
0300
0000
0F80
3CE0
6030
4018
C00C
800C
8004
8004
8004
C00C
C008
6018
3870
1FC0
ENDCHAR
STARTCHAR 01D3
ENCODING 467
SWIDTH 462 0
DWIDTH 9 0
BBX 8 18 1 0
BITMAP
46
2C
18
00
83
83
83
83
83
83
83
83
83
83
83
C3
46
7C
ENDCHAR
STARTCHAR 01D4
ENCODING 468
SWIDTH 462 0
DWIDTH 9 0
BBX 8 18 1 0
BITMAP
46
2C
18
00
83
83
83
83
83
83
83
83
83
83
83
C3
46
7C
ENDCHAR
STARTCHAR 02C6
ENCODING 710
SWIDTH 257 0
DWIDTH 5 0
BBX 5 2 0 15
BITMAP
70
C8
ENDCHAR
STARTCHAR 02C7
ENCODING 711
SWIDTH 257 0
DWIDTH 5 0
BBX 6 3 0 15
BITMAP
8C
48
30
ENDCHAR
STARTCHAR 02D8
ENCODING 728
SWIDTH 257 0
DWIDTH 5 0
BBX 5 2 0 15
BITMAP
88
70
ENDCHAR
STARTCHAR 02D9
ENCODING 729
SWIDTH 102 0
DWIDTH 2 0
BBX 3 3 0 15
BITMAP
C0
E0
40
ENDCHAR
STARTCHAR 02DA
ENCODING 730
SWIDTH 154 0
DWIDTH 3 0
BBX 4 4 0 15
BITMAP
60
90
90
E0
ENDCHAR
STARTCHAR 02DB
ENCODING 731
SWIDTH 154 0
DWIDTH 3 0
BBX 3 3 0 -3
BITMAP
40
80
E0
ENDCHAR
STARTCHAR 02DC
ENCODING 732
SWIDTH 205 0
DWIDTH 4 0
BBX 5 1 0 16
BITMAP
F8
ENDCHAR
STARTCHAR 02DD
ENCODING 733
SWIDTH 308 0
DWIDTH 6 0
BBX 6 2 0 15
BITMAP
4C
C8
ENDCHAR
STARTCHAR 0300
ENCODING 768
SWIDTH 0 0
DWIDTH 0 0
BBX 2 2 -2 15
BITMAP
80
C0
ENDCHAR
STARTCHAR 0301
ENCODING 769
SWIDTH 0 0
DWIDTH 0 0
BBX 2 2 -2 15
BITMAP
C0
80
ENDCHAR
STARTCHAR 0302
ENCODING 770
SWIDTH 0 0
DWIDTH 0 0
BBX 5 2 -5 15
BITMAP
70
98
ENDCHAR
STARTCHAR 0303
ENCODING 771
SWIDTH 0 0
DWIDTH 0 0
BBX 5 1 -5 16
BITMAP
F8
ENDCHAR
STARTCHAR 0304
ENCODING 772
SWIDTH 0 0
DWIDTH 0 0
BBX 5 2 -5 15
BITMAP
F8
F8
ENDCHAR
STARTCHAR 0306
ENCODING 774
SWIDTH 0 0
DWIDTH 0 0
BBX 5 2 -5 15
BITMAP
88
70
ENDCHAR
STARTCHAR 0307
ENCODING 775
SWIDTH 0 0
DWIDTH 0 0
BBX 3 3 -3 15
BITMAP
60
E0
60
ENDCHAR
STARTCHAR 0308
ENCODING 776
SWIDTH 0 0
DWIDTH 0 0
BBX 7 2 -7 15
BITMAP
E6
EE
ENDCHAR
STARTCHAR 0309
ENCODING 777
SWIDTH 0 0
DWIDTH 0 0
BBX 1 3 -1 15
BITMAP
80
80
80
ENDCHAR
STARTCHAR 030A
ENCODING 778
SWIDTH 0 0
DWIDTH 0 0
BBX 4 4 -4 15
BITMAP
60
90
90
70
ENDCHAR
STARTCHAR 030B
ENCODING 779
SWIDTH 0 0
DWIDTH 0 0
BBX 6 2 -6 15
BITMAP
4C
88
ENDCHAR
STARTCHAR 030C
ENCODING 780
SWIDTH 0 0
DWIDTH 0 0
BBX 6 3 -6 15
BITMAP
C4
68
30
ENDCHAR
STARTCHAR 031B
ENCODING 795
SWIDTH 0 0
DWIDTH 0 0
BBX 2 2 -2 13
BITMAP
40
80
ENDCHAR
STARTCHAR 0323
ENCODING 803
SWIDTH 0 0
DWIDTH 0 0
BBX 3 2 -3 -5
BITMAP
E0
E0
ENDCHAR
STARTCHAR 0326
ENCODING 806
SWIDTH 0 0
DWIDTH 0 0
BBX 2 3 -2 -4
BITMAP
40
80
80
ENDCHAR
STARTCHAR 0327
ENCODING 807
SWIDTH 0 0
DWIDTH 0 0
BBX 4 4 -4 -4
BITMAP
20
10
90
F0
ENDCHAR
STARTCHAR 0328
ENCODING 808
SWIDTH 0 0
DWIDTH 0 0
BBX 4 3 -4 -3
BITMAP
40
80
70
ENDCHAR
STARTCHAR 0335
ENCODING 821
SWIDTH 0 0
DWIDTH 0 0
BBX 6 1 -6 4
BITMAP
FC
ENDCHAR
STARTCHAR 1EA0
ENCODING 7840
SWIDTH 514 0
DWIDTH 10 0
BBX 9 19 1 -5
BITMAP
3C00
6600
C300
C300
8100
8100
8100
8100
8100
8100
8100
8100
8100
FF80
0000
0000
0000
1800
1800
ENDCHAR
STARTCHAR 1EA1
ENCODING 7841
SWIDTH 514 0
DWIDTH 10 0
BBX 9 19 1 -5
BITMAP
3C00
6600
C300
C300
8100
8100
8100
8100
8100
8100
8100
8100
8100
FF80
0000
0000
0000
1800
1800
ENDCHAR
STARTCHAR 1EA2
ENCODING 7842
SWIDTH 514 0
DWIDTH 10 0
BBX 9 18 1 0
BITMAP
0800
1000
1000
0000
3C00
6600
C300
C300
8100
8100
8100
8100
8100
8100
8100
8100
8100
FF80
ENDCHAR
STARTCHAR 1EA3
ENCODING 7843
SWIDTH 514 0
DWIDTH 10 0
BBX 9 18 1 0
BITMAP
0800
1000
1000
0000
3C00
6600
C300
C300
8100
8100
8100
8100
8100
8100
8100
8100
8100
FF80
ENDCHAR
STARTCHAR 1EA4
ENCODING 7844
SWIDTH 514 0
DWIDTH 10 0
BBX 9 19 1 0
BITMAP
0180
0100
1A00
2400
0000
3C00
6600
C300
C300
8100
8100
8100
8100
8100
8100
8100
8100
8100
FF80
ENDCHAR
STARTCHAR 1EA5
ENCODING 7845
SWIDTH 514 0
DWIDTH 10 0
BBX 9 19 1 0
BITMAP
0180
0100
1A00
2400
0000
3C00
6600
C300
C300
8100
8100
8100
8100
8100
8100
8100
8100
8100
FF80
ENDCHAR
STARTCHAR 1EA6
ENCODING 7846
SWIDTH 514 0
DWIDTH 10 0
BBX 10 19 0 0
BITMAP
8000
4000
4C00
1200
0000
1E00
3300
6180
6180
4080
4080
4080
4080
4080
4080
4080
4080
4080
7FC0
ENDCHAR
STARTCHAR 1EA7
ENCODING 7847
SWIDTH 514 0
DWIDTH 10 0
BBX 10 19 0 0
BITMAP
8000
4000
4C00
1200
0000
1E00
3300
6180
6180
4080
4080
4080
4080
4080
4080
4080
4080
4080
7FC0
ENDCHAR
STARTCHAR 1EA8
ENCODING 7848
SWIDTH 514 0
DWIDTH 10 0
BBX 9 20 1 0
BITMAP
0100
0100
0200
1A00
2400
0000
3C00
6600
C300
C300
8100
8100
8100
8100
8100
8100
8100
8100
8100
FF80
ENDCHAR
STARTCHAR 1EA9
ENCODING 7849
SWIDTH 514 0
DWIDTH 10 0
BBX 9 20 1 0
BITMAP
0100
0100
0200
1A00
2400
0000
3C00
6600
C300
C300
8100
8100
8100
8100
8100
8100
8100
8100
8100
FF80
ENDCHAR
STARTCHAR 1EAA
ENCODING 7850
SWIDTH 514 0
DWIDTH 10 0
BBX 9 19 1 0
BITMAP
0F80
0000
1800
2400
0000
3C00
6600
C300
C300
8100
8100
8100
8100
8100
8100
8100
8100
8100
FF80
ENDCHAR
STARTCHAR 1EAB
ENCODING 7851
SWIDTH 514 0
DWIDTH 10 0
BBX 9 19 1 0
BITMAP
0F80
0000
1800
2400
0000
3C00
6600
C300
C300
8100
8100
8100
8100
8100
8100
8100
8100
8100
FF80
ENDCHAR
STARTCHAR 1EAC
ENCODING 7852
SWIDTH 514 0
DWIDTH 10 0
BBX 9 22 1 -5
BITMAP
1800
2400
0000
3C00
6600
C300
C300
8100
8100
8100
8100
8100
8100
8100
8100
8100
FF80
0000
0000
0000
1800
1800
ENDCHAR
STARTCHAR 1EAD
ENCODING 7853
SWIDTH 514 0
DWIDTH 10 0
BBX 9 22 1 -5
BITMAP
1800
2400
0000
3C00
6600
C300
C300
8100
8100
8100
8100
8100
8100
8100
8100
8100
FF80
0000
0000
0000
1800
1800
ENDCHAR
STARTCHAR 1EAE
ENCODING 7854
SWIDTH 514 0
DWIDTH 10 0
BBX 9 20 1 0
BITMAP
0400
0800
0800
2400
3C00
0000
3C00
6600
C300
C300
8100
8100
8100
8100
8100
8100
8100
8100
8100
FF80
ENDCHAR
STARTCHAR 1EAF
ENCODING 7855
SWIDTH 514 0
DWIDTH 10 0
BBX 9 20 1 0
BITMAP
0400
0800
0800
2400
3C00
0000
3C00
6600
C300
C300
8100
8100
8100
8100
8100
8100
8100
8100
8100
FF80
ENDCHAR
STARTCHAR 1EB0
ENCODING 7856
SWIDTH 514 0
DWIDTH 10 0
BBX 9 20 1 0
BITMAP
6000
2000
1000
2400
3C00
0000
3C00
6600
C300
C300
8100
8100
8100
8100
8100
8100
8100
8100
8100
FF80
ENDCHAR
STARTCHAR 1EB1
ENCODING 7857
SWIDTH 514 0
DWIDTH 10 0
BBX 9 20 1 0
BITMAP
6000
2000
1000
2400
3C00
0000
3C00
6600
C300
C300
8100
8100
8100
8100
8100
8100
8100
8100
8100
FF80
ENDCHAR
STARTCHAR 1EB2
ENCODING 7858
SWIDTH 514 0
DWIDTH 10 0
BBX 9 20 1 0
BITMAP
0800
0800
1000
2400
3C00
0000
3C00
6600
C300
C300
8100
8100
8100
8100
8100
8100
8100
8100
8100
FF80
ENDCHAR
STARTCHAR 1EB3
ENCODING 7859
SWIDTH 514 0
DWIDTH 10 0
BBX 9 20 1 0
BITMAP
0800
0800
1000
2400
3C00
0000
3C00
6600
C300
C300
8100
8100
8100
8100
8100
8100
8100
8100
8100
FF80
ENDCHAR
STARTCHAR 1EB4
ENCODING 7860
SWIDTH 514 0
DWIDTH 10 0
BBX 9 19 1 0
BITMAP
3C00
0000
2400
3C00
0000
3C00
6600
C300
C300
8100
8100
8100
8100
8100
8100
8100
8100
8100
FF80
ENDCHAR
STARTCHAR 1EB5
ENCODING 7861
SWIDTH 514 0
DWIDTH 10 0
BBX 9 19 1 0
BITMAP
3C00
0000
2400
3C00
0000
3C00
6600
C300
C300
8100
8100
8100
8100
8100
8100
8100
8100
8100
FF80
ENDCHAR
STARTCHAR 1EB6
ENCODING 7862
SWIDTH 514 0
DWIDTH 10 0
BBX 9 22 1 -5
BITMAP
2400
3C00
0000
3C00
6600
C300
C300
8100
8100
8100
8100
8100
8100
8100
8100
8100
FF80
0000
0000
0000
1800
1800
ENDCHAR
STARTCHAR 1EB7
ENCODING 7863
SWIDTH 514 0
DWIDTH 10 0
BBX 9 22 1 -5
BITMAP
2400
3C00
0000
3C00
6600
C300
C300
8100
8100
8100
8100
8100
8100
8100
8100
8100
FF80
0000
0000
0000
1800
1800
ENDCHAR
STARTCHAR 1EB8
ENCODING 7864
SWIDTH 462 0
DWIDTH 9 0
BBX 9 19 0 -5
BITMAP
3E00
3E00
2000
2000
2000
2000
FF00
FF00
2000
2000
2000
2000
2000
3F80
0000
0000
0000
0600
0600
ENDCHAR
STARTCHAR 1EB9
ENCODING 7865
SWIDTH 462 0
DWIDTH 9 0
BBX 9 19 0 -5
BITMAP
3E00
3E00
2000
2000
2000
2000
FF00
FF00
2000
2000
2000
2000
2000
3F80
0000
0000
0000
0600
0600
ENDCHAR
STARTCHAR 1EBA
ENCODING 7866
SWIDTH 462 0
DWIDTH 9 0
BBX 9 18 0 0
BITMAP
0800
0800
0800
0000
3E00
3E00
2000
2000
2000
2000
FF00
FF00
2000
2000
2000
2000
2000
3F80
ENDCHAR
STARTCHAR 1EBB
ENCODING 7867
SWIDTH 462 0
DWIDTH 9 0
BBX 9 18 0 0
BITMAP
0800
0800
0800
0000
3E00
3E00
2000
2000
2000
2000
FF00
FF00
2000
2000
2000
2000
2000
3F80
ENDCHAR
STARTCHAR 1EBC
ENCODING 7868
SWIDTH 462 0
DWIDTH 9 0
BBX 9 17 0 0
BITMAP
3E00
0000
0000
3E00
3E00
2000
2000
2000
2000
FF00
FF00
2000
2000
2000
2000
2000
3F80
ENDCHAR
STARTCHAR 1EBD
ENCODING 7869
SWIDTH 462 0
DWIDTH 9 0
BBX 9 17 0 0
BITMAP
3E00
0000
0000
3E00
3E00
2000
2000
2000
2000
FF00
FF00
2000
2000
2000
2000
2000
3F80
ENDCHAR
STARTCHAR 1EBE
ENCODING 7870
SWIDTH 462 0
DWIDTH 9 0
BBX 9 19 0 0
BITMAP
0080
0180
1D00
3600
0000
3E00
3E00
2000
2000
2000
2000
FF00
FF00
2000
2000
2000
2000
2000
3F80
ENDCHAR
STARTCHAR 1EBF
ENCODING 7871
SWIDTH 462 0
DWIDTH 9 0
BBX 9 19 0 0
BITMAP
0080
0180
1D00
3600
0000
3E00
3E00
2000
2000
2000
2000
FF00
FF00
2000
2000
2000
2000
2000
3F80
ENDCHAR
STARTCHAR 1EC0
ENCODING 7872
SWIDTH 462 0
DWIDTH 9 0
BBX 10 19 -1 0
BITMAP
C000
4000
2E00
1B00
0000
1F00
1F00
1000
1000
1000
1000
7F80
7F80
1000
1000
1000
1000
1000
1FC0
ENDCHAR
STARTCHAR 1EC1
ENCODING 7873
SWIDTH 462 0
DWIDTH 9 0
BBX 10 19 -1 0
BITMAP
C000
4000
2E00
1B00
0000
1F00
1F00
1000
1000
1000
1000
7F80
7F80
1000
1000
1000
1000
1000
1FC0
ENDCHAR
STARTCHAR 1EC2
ENCODING 7874
SWIDTH 462 0
DWIDTH 9 0
BBX 9 20 0 0
BITMAP
0100
0100
0100
1D00
3600
0000
3E00
3E00
2000
2000
2000
2000
FF00
FF00
2000
2000
2000
2000
2000
3F80
ENDCHAR
STARTCHAR 1EC3
ENCODING 7875
SWIDTH 462 0
DWIDTH 9 0
BBX 9 20 0 0
BITMAP
0100
0100
0100
1D00
3600
0000
3E00
3E00
2000
2000
2000
2000
FF00
FF00
2000
2000
2000
2000
2000
3F80
ENDCHAR
STARTCHAR 1EC4
ENCODING 7876
SWIDTH 462 0
DWIDTH 9 0
BBX 9 19 0 0
BITMAP
0F80
0000
1C00
3600
0000
3E00
3E00
2000
2000
2000
2000
FF00
FF00
2000
2000
2000
2000
2000
3F80
ENDCHAR
STARTCHAR 1EC5
ENCODING 7877
SWIDTH 462 0
DWIDTH 9 0
BBX 9 19 0 0
BITMAP
0F80
0000
1C00
3600
0000
3E00
3E00
2000
2000
2000
2000
FF00
FF00
2000
2000
2000
2000
2000
3F80
ENDCHAR
STARTCHAR 1EC6
ENCODING 7878
SWIDTH 462 0
DWIDTH 9 0
BBX 9 22 0 -5
BITMAP
1C00
3600
0000
3E00
3E00
2000
2000
2000
2000
FF00
FF00
2000
2000
2000
2000
2000
3F80
0000
0000
0000
0600
0600
ENDCHAR
STARTCHAR 1EC7
ENCODING 7879
SWIDTH 462 0
DWIDTH 9 0
BBX 9 22 0 -5
BITMAP
1C00
3600
0000
3E00
3E00
2000
2000
2000
2000
FF00
FF00
2000
2000
2000
2000
2000
3F80
0000
0000
0000
0600
0600
ENDCHAR
STARTCHAR 1EC8
ENCODING 7880
SWIDTH 154 0
DWIDTH 3 0
BBX 1 13 1 0
BITMAP
80
80
80
80
00
80
80
80
80
80
80
80
80
ENDCHAR
STARTCHAR 1EC9
ENCODING 7881
SWIDTH 154 0
DWIDTH 3 0
BBX 1 13 1 0
BITMAP
80
80
80
80
00
80
80
80
80
80
80
80
80
ENDCHAR
STARTCHAR 1ECA
ENCODING 7882
SWIDTH 154 0
DWIDTH 3 0
BBX 5 20 -1 -5
BITMAP
20
F8
30
50
00
00
00
20
20
20
20
20
20
20
20
00
00
00
70
70
ENDCHAR
STARTCHAR 1ECB
ENCODING 7883
SWIDTH 154 0
DWIDTH 3 0
BBX 5 20 -1 -5
BITMAP
20
F8
30
50
00
00
00
20
20
20
20
20
20
20
20
00
00
00
70
70
ENDCHAR
STARTCHAR 1ECC
ENCODING 7884
SWIDTH 771 0
DWIDTH 15 0
BBX 14 19 1 -5
BITMAP
0F80
3CE0
6030
4018
C00C
800C
8004
8004
8004
C00C
C008
6018
3870
1FC0
0000
0000
0000
0300
0300
ENDCHAR
STARTCHAR 1ECD
ENCODING 7885
SWIDTH 771 0
DWIDTH 15 0
BBX 14 19 1 -5
BITMAP
0F80
3CE0
6030
4018
C00C
800C
8004
8004
8004
C00C
C008
6018
3870
1FC0
0000
0000
0000
0300
0300
ENDCHAR
STARTCHAR 1ECE
ENCODING 7886
SWIDTH 771 0
DWIDTH 15 0
BBX 14 18 1 0
BITMAP
0100
0200
0200
0000
0F80
3CE0
6030
4018
C00C
800C
8004
8004
8004
C00C
C008
6018
3870
1FC0
ENDCHAR
STARTCHAR 1ECF
ENCODING 7887
SWIDTH 771 0
DWIDTH 15 0
BBX 14 18 1 0
BITMAP
0100
0200
0200
0000
0F80
3CE0
6030
4018
C00C
800C
8004
8004
8004
C00C
C008
6018
3870
1FC0
ENDCHAR
STARTCHAR 1ED0
ENCODING 7888
SWIDTH 771 0
DWIDTH 15 0
BBX 14 19 1 0
BITMAP
0030
0020
0740
0480
0000
0F80
3CE0
6030
4018
C00C
800C
8004
8004
8004
C00C
C008
6018
3870
1FC0
ENDCHAR
STARTCHAR 1ED1
ENCODING 7889
SWIDTH 771 0
DWIDTH 15 0
BBX 14 19 1 0
BITMAP
0030
0020
0740
0480
0000
0F80
3CE0
6030
4018
C00C
800C
8004
8004
8004
C00C
C008
6018
3870
1FC0
ENDCHAR
STARTCHAR 1ED2
ENCODING 7890
SWIDTH 771 0
DWIDTH 15 0
BBX 14 19 1 0
BITMAP
2000
1000
1700
0480
0000
0F80
3CE0
6030
4018
C00C
800C
8004
8004
8004
C00C
C008
6018
3870
1FC0
ENDCHAR
STARTCHAR 1ED3
ENCODING 7891
SWIDTH 771 0
DWIDTH 15 0
BBX 14 19 1 0
BITMAP
2000
1000
1700
0480
0000
0F80
3CE0
6030
4018
C00C
800C
8004
8004
8004
C00C
C008
6018
3870
1FC0
ENDCHAR
STARTCHAR 1ED4
ENCODING 7892
SWIDTH 771 0
DWIDTH 15 0
BBX 14 20 1 0
BITMAP
0020
0040
0040
0740
0480
0000
0F80
3CE0
6030
4018
C00C
800C
8004
8004
8004
C00C
C008
6018
3870
1FC0
ENDCHAR
STARTCHAR 1ED5
ENCODING 7893
SWIDTH 771 0
DWIDTH 15 0
BBX 14 20 1 0
BITMAP
0020
0040
0040
0740
0480
0000
0F80
3CE0
6030
4018
C00C
800C
8004
8004
8004
C00C
C008
6018
3870
1FC0
ENDCHAR
STARTCHAR 1ED6
ENCODING 7894
SWIDTH 771 0
DWIDTH 15 0
BBX 14 19 1 0
BITMAP
01E0
0000
0700
0480
0000
0F80
3CE0
6030
4018
C00C
800C
8004
8004
8004
C00C
C008
6018
3870
1FC0
ENDCHAR
STARTCHAR 1ED7
ENCODING 7895
SWIDTH 771 0
DWIDTH 15 0
BBX 14 19 1 0
BITMAP
01E0
0000
0700
0480
0000
0F80
3CE0
6030
4018
C00C
800C
8004
8004
8004
C00C
C008
6018
3870
1FC0
ENDCHAR
STARTCHAR 1ED8
ENCODING 7896
SWIDTH 771 0
DWIDTH 15 0
BBX 14 22 1 -5
BITMAP
0700
0480
0000
0F80
3CE0
6030
4018
C00C
800C
8004
8004
8004
C00C
C008
6018
3870
1FC0
0000
0000
0000
0300
0300
ENDCHAR
STARTCHAR 1ED9
ENCODING 7897
SWIDTH 771 0
DWIDTH 15 0
BBX 14 22 1 -5
BITMAP
0700
0480
0000
0F80
3CE0
6030
4018
C00C
800C
8004
8004
8004
C00C
C008
6018
3870
1FC0
0000
0000
0000
0300
0300
ENDCHAR
STARTCHAR 1EDA
ENCODING 7898
SWIDTH 771 0
DWIDTH 15 0
BBX 14 17 1 0
BITMAP
0100
0300
0010
0FB0
3CE0
6030
4018
C00C
800C
8004
8004
8004
C00C
C008
6018
3870
1FC0
ENDCHAR
STARTCHAR 1EDB
ENCODING 7899
SWIDTH 771 0
DWIDTH 15 0
BBX 14 17 1 0
BITMAP
0100
0300
0010
0FB0
3CE0
6030
4018
C00C
800C
8004
8004
8004
C00C
C008
6018
3870
1FC0
ENDCHAR
STARTCHAR 1EDC
ENCODING 7900
SWIDTH 771 0
DWIDTH 15 0
BBX 14 17 1 0
BITMAP
0600
0200
0010
0FB0
3CE0
6030
4018
C00C
800C
8004
8004
8004
C00C
C008
6018
3870
1FC0
ENDCHAR
STARTCHAR 1EDD
ENCODING 7901
SWIDTH 771 0
DWIDTH 15 0
BBX 14 17 1 0
BITMAP
0600
0200
0010
0FB0
3CE0
6030
4018
C00C
800C
8004
8004
8004
C00C
C008
6018
3870
1FC0
ENDCHAR
STARTCHAR 1EDE
ENCODING 7902
SWIDTH 771 0
DWIDTH 15 0
BBX 14 18 1 0
BITMAP
0100
0200
0200
0010
0FB0
3CE0
6030
4018
C00C
800C
8004
8004
8004
C00C
C008
6018
3870
1FC0
ENDCHAR
STARTCHAR 1EDF
ENCODING 7903
SWIDTH 771 0
DWIDTH 15 0
BBX 14 18 1 0
BITMAP
0100
0200
0200
0010
0FB0
3CE0
6030
4018
C00C
800C
8004
8004
8004
C00C
C008
6018
3870
1FC0
ENDCHAR
STARTCHAR 1EE0
ENCODING 7904
SWIDTH 771 0
DWIDTH 15 0
BBX 14 17 1 0
BITMAP
0F80
0000
0010
0FB0
3CE0
6030
4018
C00C
800C
8004
8004
8004
C00C
C008
6018
3870
1FC0
ENDCHAR
STARTCHAR 1EE1
ENCODING 7905
SWIDTH 771 0
DWIDTH 15 0
BBX 14 17 1 0
BITMAP
0F80
0000
0010
0FB0
3CE0
6030
4018
C00C
800C
8004
8004
8004
C00C
C008
6018
3870
1FC0
ENDCHAR
STARTCHAR 1EE2
ENCODING 7906
SWIDTH 771 0
DWIDTH 15 0
BBX 14 20 1 -5
BITMAP
0010
0FB0
3CE0
6030
4018
C00C
800C
8004
8004
8004
C00C
C008
6018
3870
1FC0
0000
0000
0000
0300
0300
ENDCHAR
STARTCHAR 1EE3
ENCODING 7907
SWIDTH 771 0
DWIDTH 15 0
BBX 14 20 1 -5
BITMAP
0010
0FB0
3CE0
6030
4018
C00C
800C
8004
8004
8004
C00C
C008
6018
3870
1FC0
0000
0000
0000
0300
0300
ENDCHAR
STARTCHAR 1EE4
ENCODING 7908
SWIDTH 462 0
DWIDTH 9 0
BBX 8 19 1 -5
BITMAP
83
83
83
83
83
83
83
83
83
83
83
C3
46
7C
00
00
00
18
18
ENDCHAR
STARTCHAR 1EE5
ENCODING 7909
SWIDTH 462 0
DWIDTH 9 0
BBX 8 19 1 -5
BITMAP
83
83
83
83
83
83
83
83
83
83
83
C3
46
7C
00
00
00
18
18
ENDCHAR
STARTCHAR 1EE6
ENCODING 7910
SWIDTH 462 0
DWIDTH 9 0
BBX 8 18 1 0
BITMAP
08
10
10
00
83
83
83
83
83
83
83
83
83
83
83
C3
46
7C
ENDCHAR
STARTCHAR 1EE7
ENCODING 7911
SWIDTH 462 0
DWIDTH 9 0
BBX 8 18 1 0
BITMAP
08
10
10
00
83
83
83
83
83
83
83
83
83
83
83
C3
46
7C
ENDCHAR
STARTCHAR 1EE8
ENCODING 7912
SWIDTH 462 0
DWIDTH 9 0
BBX 9 17 1 0
BITMAP
0800
1000
0080
8380
8300
8300
8300
8300
8300
8300
8300
8300
8300
8300
C300
4600
7C00
ENDCHAR
STARTCHAR 1EE9
ENCODING 7913
SWIDTH 462 0
DWIDTH 9 0
BBX 9 17 1 0
BITMAP
0800
1000
0080
8380
8300
8300
8300
8300
8300
8300
8300
8300
8300
8300
C300
4600
7C00
ENDCHAR
STARTCHAR 1EEA
ENCODING 7914
SWIDTH 462 0
DWIDTH 9 0
BBX 9 17 1 0
BITMAP
3000
1000
0080
8380
8300
8300
8300
8300
8300
8300
8300
8300
8300
8300
C300
4600
7C00
ENDCHAR
STARTCHAR 1EEB
ENCODING 7915
SWIDTH 462 0
DWIDTH 9 0
BBX 9 17 1 0
BITMAP
3000
1000
0080
8380
8300
8300
8300
8300
8300
8300
8300
8300
8300
8300
C300
4600
7C00
ENDCHAR
STARTCHAR 1EEC
ENCODING 7916
SWIDTH 462 0
DWIDTH 9 0
BBX 9 18 1 0
BITMAP
0800
1000
1000
0080
8380
8300
8300
8300
8300
8300
8300
8300
8300
8300
8300
C300
4600
7C00
ENDCHAR
STARTCHAR 1EED
ENCODING 7917
SWIDTH 462 0
DWIDTH 9 0
BBX 9 18 1 0
BITMAP
0800
1000
1000
0080
8380
8300
8300
8300
8300
8300
8300
8300
8300
8300
8300
C300
4600
7C00
ENDCHAR
STARTCHAR 1EEE
ENCODING 7918
SWIDTH 462 0
DWIDTH 9 0
BBX 9 17 1 0
BITMAP
7C00
0000
0080
8380
8300
8300
8300
8300
8300
8300
8300
8300
8300
8300
C300
4600
7C00
ENDCHAR
STARTCHAR 1EEF
ENCODING 7919
SWIDTH 462 0
DWIDTH 9 0
BBX 9 17 1 0
BITMAP
7C00
0000
0080
8380
8300
8300
8300
8300
8300
8300
8300
8300
8300
8300
C300
4600
7C00
ENDCHAR
STARTCHAR 1EF0
ENCODING 7920
SWIDTH 462 0
DWIDTH 9 0
BBX 9 20 1 -5
BITMAP
0080
8380
8300
8300
8300
8300
8300
8300
8300
8300
8300
8300
C300
4600
7C00
0000
0000
0000
1800
1800
ENDCHAR
STARTCHAR 1EF1
ENCODING 7921
SWIDTH 462 0
DWIDTH 9 0
BBX 9 20 1 -5
BITMAP
0080
8380
8300
8300
8300
8300
8300
8300
8300
8300
8300
8300
C300
4600
7C00
0000
0000
0000
1800
1800
ENDCHAR
STARTCHAR 1EF2
ENCODING 7922
SWIDTH 462 0
DWIDTH 9 0
BBX 8 17 1 0
BITMAP
30
10
00
83
83
83
83
83
83
83
83
C2
7E
38
10
10
10
ENDCHAR
STARTCHAR 1EF3
ENCODING 7923
SWIDTH 462 0
DWIDTH 9 0
BBX 8 17 1 0
BITMAP
30
10
00
83
83
83
83
83
83
83
83
C2
7E
38
10
10
10
ENDCHAR
STARTCHAR 1EF4
ENCODING 7924
SWIDTH 462 0
DWIDTH 9 0
BBX 8 19 1 -5
BITMAP
83
83
83
83
83
83
83
83
C2
7E
38
10
10
10
00
00
00
38
18
ENDCHAR
STARTCHAR 1EF5
ENCODING 7925
SWIDTH 462 0
DWIDTH 9 0
BBX 8 19 1 -5
BITMAP
83
83
83
83
83
83
83
83
C2
7E
38
10
10
10
00
00
00
38
18
ENDCHAR
STARTCHAR 1EF6
ENCODING 7926
SWIDTH 462 0
DWIDTH 9 0
BBX 8 18 1 0
BITMAP
10
10
10
00
83
83
83
83
83
83
83
83
C2
7E
38
10
10
10
ENDCHAR
STARTCHAR 1EF7
ENCODING 7927
SWIDTH 462 0
DWIDTH 9 0
BBX 8 18 1 0
BITMAP
10
10
10
00
83
83
83
83
83
83
83
83
C2
7E
38
10
10
10
ENDCHAR
STARTCHAR 1EF8
ENCODING 7928
SWIDTH 462 0
DWIDTH 9 0
BBX 8 17 1 0
BITMAP
7C
00
00
83
83
83
83
83
83
83
83
C2
7E
38
10
10
10
ENDCHAR
STARTCHAR 1EF9
ENCODING 7929
SWIDTH 462 0
DWIDTH 9 0
BBX 8 17 1 0
BITMAP
7C
00
00
83
83
83
83
83
83
83
83
C2
7E
38
10
10
10
ENDCHAR
STARTCHAR 2013
ENCODING 8211
SWIDTH 565 0
DWIDTH 11 0
BBX 9 1 1 5
BITMAP
FF80
ENDCHAR
STARTCHAR 2014
ENCODING 8212
SWIDTH 771 0
DWIDTH 15 0
BBX 13 1 1 5
BITMAP
FFF8
ENDCHAR
STARTCHAR 2018
ENCODING 8216
SWIDTH 205 0
DWIDTH 4 0
BBX 2 4 1 10
BITMAP
40
40
40
C0
ENDCHAR
STARTCHAR 2019
ENCODING 8217
SWIDTH 205 0
DWIDTH 4 0
BBX 2 4 1 10
BITMAP
40
40
C0
80
ENDCHAR
STARTCHAR 201A
ENCODING 8218
SWIDTH 205 0
DWIDTH 4 0
BBX 2 3 1 -2
BITMAP
40
C0
80
ENDCHAR
STARTCHAR 201C
ENCODING 8220
SWIDTH 360 0
DWIDTH 7 0
BBX 6 4 1 10
BITMAP
04
48
48
D8
ENDCHAR
STARTCHAR 201D
ENCODING 8221
SWIDTH 360 0
DWIDTH 7 0
BBX 5 4 1 10
BITMAP
48
48
D8
90
ENDCHAR
STARTCHAR 201E
ENCODING 8222
SWIDTH 360 0
DWIDTH 7 0
BBX 5 3 1 -2
BITMAP
48
C8
88
ENDCHAR
STARTCHAR 2020
ENCODING 8224
SWIDTH 360 0
DWIDTH 7 0
BBX 6 9 1 5
BITMAP
30
30
FC
30
30
30
30
30
30
ENDCHAR
STARTCHAR 2021
ENCODING 8225
SWIDTH 360 0
DWIDTH 7 0
BBX 6 9 1 5
BITMAP
30
30
FC
30
30
30
FC
30
30
ENDCHAR
STARTCHAR 2022
ENCODING 8226
SWIDTH 308 0
DWIDTH 6 0
BBX 4 4 1 3
BITMAP
F0
F0
F0
60
ENDCHAR
STARTCHAR 2026
ENCODING 8230
SWIDTH 617 0
DWIDTH 12 0
BBX 10 2 1 0
BITMAP
EEC0
ECC0
ENDCHAR
STARTCHAR 2030
ENCODING 8240
SWIDTH 1234 0
DWIDTH 24 0
BBX 22 14 1 0
BITMAP
381800
4C1000
C42000
864000
C4C000
6C8000
310000
030000
027878
04C48C
0C8484
088484
10CCCC
207878
ENDCHAR
STARTCHAR 2039
ENCODING 8249
SWIDTH 308 0
DWIDTH 6 0
BBX 4 8 1 2
BITMAP
10
20
60
C0
C0
60
20
10
ENDCHAR
STARTCHAR 203A
ENCODING 8250
SWIDTH 308 0
DWIDTH 6 0
BBX 3 8 2 2
BITMAP
80
C0
60
20
20
60
C0
80
ENDCHAR
STARTCHAR 2044
ENCODING 8260
SWIDTH 617 0
DWIDTH 12 0
BBX 11 14 1 0
BITMAP
0060
0040
0080
0180
0100
0200
0600
0400
0800
1000
3000
2000
4000
C000
ENDCHAR
STARTCHAR 20AC
ENCODING 8364
SWIDTH 617 0
DWIDTH 12 0
BBX 11 14 1 0
BITMAP
01E0
07E0
1C00
1000
3000
FF80
FF80
2000
FF80
3000
1000
1800
0E20
03E0
ENDCHAR
STARTCHAR 2122
ENCODING 8482
SWIDTH 771 0
DWIDTH 15 0
BBX 13 8 1 6
BITMAP
F808
2668
2778
24C8
2448
2448
2448
2448
ENDCHAR
STARTCHAR 2190
ENCODING 8592
SWIDTH 822 0
DWIDTH 16 0
BBX 13 8 2 3
BITMAP
1000
2000
4000
FFF8
FFF8
4000
2000
1000
ENDCHAR
STARTCHAR 2191
ENCODING 8593
SWIDTH 514 0
DWIDTH 10 0
BBX 9 14 1 0
BITMAP
0800
1C00
3E00
6B00
C980
0800
0800
0800
0800
0800
0800
0800
0800
0800
ENDCHAR
STARTCHAR 2192
ENCODING 8594
SWIDTH 822 0
DWIDTH 16 0
BBX 14 8 1 3
BITMAP
0060
0030
0018
FFFC
FFFC
0018
0030
0060
ENDCHAR
STARTCHAR 2193
ENCODING 8595
SWIDTH 514 0
DWIDTH 10 0
BBX 9 14 1 0
BITMAP
0800
0800
0800
0800
0800
0800
0800
0800
0800
8880
4900
2A00
1C00
0800
ENDCHAR
STARTCHAR 2194
ENCODING 8596
SWIDTH 874 0
DWIDTH 17 0
BBX 14 8 2 3
BITMAP
1060
2030
4018
FFFC
FFFC
4018
2030
1060
ENDCHAR
STARTCHAR 2195
ENCODING 8597
SWIDTH 565 0
DWIDTH 11 0
BBX 9 14 1 0
BITMAP
0800
1E00
3B00
6980
8880
0800
0800
0800
0800
0800
C880
6B00
1E00
0C00
ENDCHAR
STARTCHAR 2196
ENCODING 8598
SWIDTH 617 0
DWIDTH 12 0
BBX 10 10 1 2
BITMAP
FC00
C000
A000
9000
8800
8400
0200
0100
0080
0040
ENDCHAR
STARTCHAR 2197
ENCODING 8599
SWIDTH 617 0
DWIDTH 12 0
BBX 10 10 1 2
BITMAP
0FC0
00C0
01C0
0340
0640
0C40
1800
3000
6000
C000
ENDCHAR
STARTCHAR 2198
ENCODING 8600
SWIDTH 617 0
DWIDTH 12 0
BBX 10 10 1 2
BITMAP
8000
4000
2000
1000
0840
0440
0240
0140
00C0
0FC0
ENDCHAR
STARTCHAR 2199
ENCODING 8601
SWIDTH 617 0
DWIDTH 12 0
BBX 10 10 1 2
BITMAP
0040
00C0
0180
0300
8600
8C00
9800
B000
E000
FC00
ENDCHAR
STARTCHAR 2202
ENCODING 8706
SWIDTH 514 0
DWIDTH 10 0
BBX 9 14 1 0
BITMAP
3000
1800
0E00
0600
0300
0900
3F80
6380
C180
C180
C180
C100
6700
3C00
ENDCHAR
STARTCHAR 2205
ENCODING 8709
SWIDTH 668 0
DWIDTH 13 0
BBX 12 12 1 1
BITMAP
0F10
30E0
4060
40A0
8110
8210
8410
8810
5020
6060
70C0
8F00
ENDCHAR
STARTCHAR 220F
ENCODING 8719
SWIDTH 565 0
DWIDTH 11 0
BBX 10 16 1 -2
BITMAP
FFC0
6100
6100
6100
6100
6100
6100
6100
6100
6100
6100
6100
6100
6100
6100
6100
ENDCHAR
STARTCHAR 2211
ENCODING 8721
SWIDTH 462 0
DWIDTH 9 0
BBX 7 16 1 -2
BITMAP
FE
C0
40
60
20
30
10
18
18
10
30
20
60
40
C0
FE
ENDCHAR
STARTCHAR 2212
ENCODING 8722
SWIDTH 514 0
DWIDTH 10 0
BBX 9 1 1 6
BITMAP
FF80
ENDCHAR
STARTCHAR 221A
ENCODING 8730
SWIDTH 617 0
DWIDTH 12 0
BBX 11 16 1 -2
BITMAP
01E0
0100
0300
0200
0200
0600
0400
0400
C400
CC00
4800
4800
6800
3800
3000
3000
ENDCHAR
STARTCHAR 221E
ENCODING 8734
SWIDTH 771 0
DWIDTH 15 0
BBX 13 6 1 4
BITMAP
78F0
C598
8308
8308
C588
78F0
ENDCHAR
STARTCHAR 222B
ENCODING 8747
SWIDTH 462 0
DWIDTH 9 0
BBX 7 16 1 -2
BITMAP
06
0C
08
08
08
08
18
10
10
10
10
30
30
20
20
C0
ENDCHAR
STARTCHAR 2248
ENCODING 8776
SWIDTH 514 0
DWIDTH 10 0
BBX 8 6 1 3
BITMAP
FF
07
00
00
FF
07
ENDCHAR
STARTCHAR 2260
ENCODING 8800
SWIDTH 514 0
DWIDTH 10 0
BBX 9 9 1 2
BITMAP
0400
0400
FF80
0800
0800
1000
FF80
3000
2000
ENDCHAR
STARTCHAR 2264
ENCODING 8804
SWIDTH 514 0
DWIDTH 10 0
BBX 9 8 1 2
BITMAP
0180
1E00
E000
F000
0F00
0080
0000
FF80
ENDCHAR
STARTCHAR 2265
ENCODING 8805
SWIDTH 514 0
DWIDTH 10 0
BBX 9 8 1 2
BITMAP
C000
7C00
0780
0F80
F800
8000
0000
FF80
ENDCHAR
STARTCHAR 25CA
ENCODING 9674
SWIDTH 462 0
DWIDTH 9 0
BBX 7 10 1 2
BITMAP
38
28
6C
44
C6
C6
44
6C
28
38
ENDCHAR
ENDFONT
